v 0.89568 -0.0293334 0 1 1 1
v 0.86052 0.119118 0 1 1 1
v 0.799968 0.324214 0 1 1 1
v 0.721836 0.494152 0 1 1 1
v 0.624171 0.648462 0 1 1 1
v 0.501113 0.769567 0 1 1 1
v 0.336895 0.889345 0 1 1 1
v 0.155514 0.944366 0 1 1 1
v -0.0331152 0.962944 0 1 1 1
v -0.198169 0.933645 0 1 1 1
v -0.344667 0.873093 0 1 1 1
v -0.516558 0.765661 0 1 1 1
v -0.666962 0.656276 0 1 1 1
v -0.801739 0.517591 0 1 1 1
v -0.901358 0.378907 0 1 1 1
v -0.981421 0.184689 0 1 1 1
v -1 -0.0039405 0 1 1 1
v -0.952144 -0.169971 0 1 1 1
v -0.862292 -0.343815 0 1 1 1
v -0.754861 -0.503986 0 1 1 1
v -0.623989 -0.627044 0 1 1 1
v -0.498978 -0.726663 0 1 1 1
v -0.362247 -0.814561 0 1 1 1
v -0.211842 -0.877066 0 1 1 1
v -0.0145589 -0.927853 0 1 1 1
v 0.174912 -0.939573 0 1 1 1
v 0.395417 -0.935923 0 1 1 1
v 0.619172 -0.889972 0 1 1 1
v 0.767011 -0.78209 0 1 1 1
v 0.852917 -0.60828 0 1 1 1
v 0.900865 -0.422484 0 1 1 1
v 0.915191 -0.19257 0 1 1 1
v -0.00530877 0.138891 0 1 1 1
v -0.521259 0.0441375 0 1 1 1
v 0.485226 -0.161177 0 1 1 1
v 0.337522 0.358977 0 1 1 1
v -0.0449479 0.550049 0 1 1 1
v -0.158485 -0.347304 0 1 1 1
v -0.565488 -0.260853 0 1 1 1
v -0.756242 -0.0235929 0 1 1 1
v -0.637947 0.294817 0 1 1 1
v 0.661884 -0.00631692 0 1 1 1
v 0.696672 -0.225318 0 1 1 1
v 0.503767 -0.444548 0 1 1 1
v -0.301415 0.61266 0 1 1 1
v 0.269207 0.62408 0 1 1 1
v 0.514135 0.470757 0 1 1 1
v -0.081813 0.757723 0 1 1 1
v 0.101376 -0.590995 0 1 1 1
v -0.189759 -0.611722 0 1 1 1
v 0.413032 0.0993702 0 1 1 1
v -0.316762 0.291828 0 1 1 1
v 0.211812 -0.749742 0 1 1 1
v -0.411488 -0.488624 0 1 1 1
vt 0.960606 -0.0262626
vt 0.924242 0.127273
vt 0.861616 0.339394
vt 0.780808 0.515152
vt 0.679798 0.674747
vt 0.552525 0.8
vt 0.382683 0.92388
vt 0.19509 0.980785
vt 6.12323e-17 1
vt -0.170707 0.969697
vt -0.322222 0.907071
vt -0.5 0.79596
vt -0.655556 0.682828
vt -0.794949 0.539394
vt -0.89798 0.39596
vt -0.980785 0.19509
vt -1 1.22465e-16
vt -0.950505 -0.171717
vt -0.857576 -0.351515
vt -0.746465 -0.517172
vt -0.611111 -0.644444
vt -0.481818 -0.747475
vt -0.340404 -0.838384
vt -0.184848 -0.90303
vt 0.0191919 -0.955556
vt 0.215152 -0.967677
vt 0.443209 -0.963902
vt 0.674628 -0.916378
vt 0.82753 -0.804801
vt 0.916378 -0.625038
vt 0.965968 -0.432878
vt 0.980785 -0.19509
vt 0.0287588 0.147723
vt -0.504862 0.0497246
vt 0.536094 -0.162622
vt 0.383331 0.375347
vt -0.0122379 0.572963
vt -0.129664 -0.355123
vt -0.550606 -0.265712
vt -0.747893 -0.0203255
vt -0.625547 0.30899
vt 0.718803 -0.00245781
vt 0.754782 -0.22896
vt 0.55527 -0.455698
vt -0.277489 0.637719
vt 0.312677 0.64953
vt 0.565993 0.490956
vt -0.0503656 0.78775
vt 0.139097 -0.607161
vt -0.162009 -0.628598
vt 0.461428 0.106849
vt -0.293361 0.305898
vt 0.253316 -0.771345
vt -0.391332 -0.501284
vn 0 0 1
vn 0 0 1
vn 0 0 1
vn 0 0 1
vn 0 0 1
vn 0 0 1
vn 0 0 1
vn 0 0 1
vn 0 0 1
vn 0 0 1
vn 0 0 1
vn 0 0 1
vn 0 0 1
vn 0 0 1
vn 0 0 1
vn 0 0 1
vn 0 0 1
vn 0 0 1
vn 0 0 1
vn 0 0 1
vn 0 0 1
vn 0 0 1
vn 0 0 1
vn 0 0 1
vn 0 0 1
vn 0 0 1
vn 0 0 1
vn 0 0 1
vn 0 0 1
vn 0 0 1
vn 0 0 1
vn 0 0 1
vn 0 0 1
vn 0 0 1
vn 0 0 1
vn 0 0 1
vn 0 0 1
vn 0 0 1
vn 0 0 1
vn 0 0 1
vn 0 0 1
vn 0 0 1
vn 0 0 1
vn 0 0 1
vn 0 0 1
vn 0 0 1
vn 0 0 1
vn 0 0 1
vn 0 0 1
vn 0 0 1
vn 0 0 1
vn 0 0 1
vn 0 0 1
vn 0 0 1
f 45/45/45 48/48/48 11/11/11
f 37/37/37 48/48/48 45/45/45
f 12/12/12 45/45/45 11/11/11
f 46/46/46 47/47/47 6/6/6
f 40/40/40 17/17/17 18/18/18
f 39/39/39 40/40/40 19/19/19
f 42/42/42 3/3/3 51/51/51
f 10/10/10 11/11/11 48/48/48
f 39/39/39 20/20/20 54/54/54
f 7/7/7 46/46/46 6/6/6
f 34/34/34 41/41/41 40/40/40
f 34/34/34 52/52/52 41/41/41
f 18/18/18 19/19/19 40/40/40
f 15/15/15 16/16/16 41/41/41
f 7/7/7 8/8/8 46/46/46
f 14/14/14 15/15/15 41/41/41
f 32/32/32 1/1/1 43/43/43
f 5/5/5 6/6/6 47/47/47
f 50/50/50 54/54/54 22/22/22
f 21/21/21 22/22/22 54/54/54
f 2/2/2 3/3/3 42/42/42
f 36/36/36 33/33/33 51/51/51
f 42/42/42 43/43/43 1/1/1
f 31/31/31 43/43/43 30/30/30
f 44/44/44 35/35/35 49/49/49
f 26/26/26 53/53/53 25/25/25
f 24/24/24 25/25/25 50/50/50
f 49/49/49 50/50/50 25/25/25
f 49/49/49 25/25/25 53/53/53
f 35/35/35 44/44/44 43/43/43
f 20/20/20 39/39/39 19/19/19
f 2/2/2 42/42/42 1/1/1
f 33/33/33 34/34/34 38/38/38
f 40/40/40 41/41/41 16/16/16
f 29/29/29 30/30/30 44/44/44
f 30/30/30 43/43/43 44/44/44
f 36/36/36 47/47/47 46/46/46
f 33/33/33 36/36/36 37/37/37
f 45/45/45 41/41/41 52/52/52
f 8/8/8 48/48/48 46/46/46
f 38/38/38 50/50/50 49/49/49
f 33/33/33 38/38/38 35/35/35
f 50/50/50 38/38/38 54/54/54
f 39/39/39 38/38/38 34/34/34
f 34/34/34 40/40/40 39/39/39
f 17/17/17 40/40/40 16/16/16
f 12/12/12 13/13/13 45/45/45
f 41/41/41 13/13/13 14/14/14
f 47/47/47 51/51/51 3/3/3
f 51/51/51 35/35/35 42/42/42
f 43/43/43 31/31/31 32/32/32
f 35/35/35 43/43/43 42/42/42
f 27/27/27 28/28/28 53/53/53
f 44/44/44 28/28/28 29/29/29
f 41/41/41 45/45/45 13/13/13
f 33/33/33 37/37/37 52/52/52
f 37/37/37 46/46/46 48/48/48
f 46/46/46 37/37/37 36/36/36
f 4/4/4 47/47/47 3/3/3
f 47/47/47 4/4/4 5/5/5
f 9/9/9 48/48/48 8/8/8
f 48/48/48 9/9/9 10/10/10
f 28/28/28 44/44/44 53/53/53
f 38/38/38 49/49/49 35/35/35
f 23/23/23 50/50/50 22/22/22
f 50/50/50 23/23/23 24/24/24
f 36/36/36 51/51/51 47/47/47
f 35/35/35 51/51/51 33/33/33
f 52/52/52 34/34/34 33/33/33
f 45/45/45 52/52/52 37/37/37
f 53/53/53 26/26/26 27/27/27
f 49/49/49 53/53/53 44/44/44
f 39/39/39 54/54/54 38/38/38
f 21/21/21 54/54/54 20/20/20
