$MeshFormat
4.1 0 8
$EndMeshFormat
$Entities
10 15 7 1
1 0 0 0 0 
2 0 0 1 0 
3 0 1 0 0 
4 0 1 1 0 
5 1 0 0 0 
6 1 0 1 0 
7 1 1 1 0 
8 1 1 0 0 
9 0.5 0.5 0.18 0 
10 0.5 0.5 0.8200000000000001 0 
1 -1e-07 -1e-07 -9.999999994736442e-08 1e-07 1e-07 1.0000001 0 2 1 -2 
2 -1e-07 -9.999999994736442e-08 -1e-07 1e-07 1.0000001 1e-07 0 2 1 -3 
3 -1e-07 0.9999999000000001 -9.999999994736442e-08 1e-07 1.0000001 1.0000001 0 2 3 -4 
4 -1e-07 -9.999999994736442e-08 0.9999999000000001 1e-07 1.0000001 1.0000001 0 2 2 -4 
5 -9.999999994736442e-08 -1e-07 -1e-07 1.0000001 1e-07 1e-07 0 2 1 -5 
6 -9.999999994736442e-08 -1e-07 0.9999999000000001 1.0000001 1e-07 1.0000001 0 2 2 -6 
7 0.9999999000000001 -1e-07 -9.999999994736442e-08 1.0000001 1e-07 1.0000001 0 2 5 -6 
8 0.9999999000000001 -9.999999994736442e-08 0.9999999000000001 1.0000001 1.0000001 1.0000001 0 2 6 -7 
9 -9.999999994736442e-08 0.9999999000000001 0.9999999000000001 1.0000001 1.0000001 1.0000001 0 2 4 -7 
10 -9.999999994736442e-08 0.9999999000000001 -1e-07 1.0000001 1.0000001 1e-07 0 2 3 -8 
11 0.9999999000000001 0.9999999000000001 -9.999999994736442e-08 1.0000001 1.0000001 1.0000001 0 2 8 -7 
12 0.9999999000000001 -9.999999994736442e-08 -1e-07 1.0000001 1.0000001 1e-07 0 2 5 -8 
13 0.4999998999999999 0.4999999 0.1799999 0.8200001 0.5000000999999999 0.8200001 0 2 9 -10 
14 0.4999999 0.4999999 0.1799999 0.5000000999999999 0.5000000999999999 0.1800001 0 2 9 -9 
15 0.4999999 0.4999999 0.8199999000000001 0.5000000999999999 0.5000000999999999 0.8200001 0 2 10 -10 
1 -1e-07 -9.999999994736442e-08 -9.999999994736442e-08 1e-07 1.0000001 1.0000001 0 4 -1 2 3 -4 
2 -9.999999994736442e-08 -1e-07 -9.999999994736442e-08 1.0000001 1e-07 1.0000001 0 4 -5 1 6 -7 
3 -9.999999994736442e-08 -9.999999994736442e-08 0.9999999000000001 1.0000001 1.0000001 1.0000001 0 4 -4 6 8 -9 
4 -9.999999994736442e-08 0.9999999000000001 -9.999999994736442e-08 1.0000001 1.0000001 1.0000001 0 4 -10 3 9 -11 
5 -9.999999994736442e-08 -9.999999994736442e-08 -1e-07 1.0000001 1.0000001 1e-07 0 4 -2 5 12 -10 
6 0.9999999000000001 -9.999999994736442e-08 -9.999999994736442e-08 1.0000001 1.0000001 1.0000001 0 4 -7 12 11 -8 
7 0.1799999 0.1799999 0.1799999 0.8200001 0.8200001 0.8200001 0 4 -13 14 13 -15 
1 -9.999999994736442e-08 -9.999999994736442e-08 -9.999999994736442e-08 1.0000001 1.0000001 1.0000001 0 7 -1 -2 3 4 -5 6 -7 
$EndEntities
$Nodes
33 354 1 354
0 1 0 1
1
0 0 0
0 2 0 1
2
0 0 1
0 3 0 1
3
0 1 0
0 4 0 1
4
0 1 1
0 5 0 1
5
1 0 0
0 6 0 1
6
1 0 1
0 7 0 1
7
1 1 1
0 8 0 1
8
1 1 0
0 9 0 1
9
0.5 0.5 0.18
0 10 0 1
10
0.5 0.5 0.8200000000000001
1 1 0 5
11
12
13
14
15
0 0 0.1666666666666662
0 0 0.3333333333333324
0 0 0.4999999999999986
0 0 0.6666666666666646
0 0 0.8333333333333321
1 2 0 5
16
17
18
19
20
0 0.1666666666666662 0
0 0.3333333333333324 0
0 0.4999999999999986 0
0 0.6666666666666646 0
0 0.8333333333333321 0
1 3 0 5
21
22
23
24
25
0 1 0.1666666666666662
0 1 0.3333333333333324
0 1 0.4999999999999986
0 1 0.6666666666666646
0 1 0.8333333333333321
1 4 0 5
26
27
28
29
30
0 0.1666666666666662 1
0 0.3333333333333324 1
0 0.4999999999999986 1
0 0.6666666666666646 1
0 0.8333333333333321 1
1 5 0 5
31
32
33
34
35
0.1666666666666662 0 0
0.3333333333333324 0 0
0.4999999999999986 0 0
0.6666666666666646 0 0
0.8333333333333321 0 0
1 6 0 5
36
37
38
39
40
0.1666666666666662 0 1
0.3333333333333324 0 1
0.4999999999999986 0 1
0.6666666666666646 0 1
0.8333333333333321 0 1
1 7 0 5
41
42
43
44
45
1 0 0.1666666666666662
1 0 0.3333333333333324
1 0 0.4999999999999986
1 0 0.6666666666666646
1 0 0.8333333333333321
1 8 0 5
46
47
48
49
50
1 0.1666666666666662 1
1 0.3333333333333324 1
1 0.4999999999999986 1
1 0.6666666666666646 1
1 0.8333333333333321 1
1 9 0 5
51
52
53
54
55
0.1666666666666662 1 1
0.3333333333333324 1 1
0.4999999999999986 1 1
0.6666666666666646 1 1
0.8333333333333321 1 1
1 10 0 5
56
57
58
59
60
0.1666666666666662 1 0
0.3333333333333324 1 0
0.4999999999999986 1 0
0.6666666666666646 1 0
0.8333333333333321 1 0
1 11 0 5
61
62
63
64
65
1 1 0.1666666666666662
1 1 0.3333333333333324
1 1 0.4999999999999986
1 1 0.6666666666666646
1 1 0.8333333333333321
1 12 0 5
66
67
68
69
70
1 0.1666666666666662 0
1 0.3333333333333324 0
1 0.4999999999999986 0
1 0.6666666666666646 0
1 0.8333333333333321 0
1 13 0 5
71
72
73
74
75
0.66 0.5 0.2228718707889796
0.7771281292110206 0.5 0.3400000000000003
0.8200000000000001 0.5 0.5000000000000001
0.7771281292110205 0.5 0.6599999999999998
0.6599999999999998 0.5 0.7771281292110205
1 14 0 0
1 15 0 0
2 1 0 34
76
77
78
79
80
81
82
83
84
85
86
87
88
89
90
91
92
93
94
95
96
97
98
99
100
101
102
103
104
105
106
107
108
109
0 0.5977876091177629 0.8506173125074281
0 0.5977876091177626 0.1493826874925709
0 0.1508426476087526 0.5815109568340523
0 0.8556624327025939 0.5833333333333316
0 0.1513080901435648 0.2623742252847558
0 0.8588713258240283 0.2507062282134787
0 0.2477062749977592 0.8611620212026556
0 0.858871325824028 0.7492937717865189
0 0.6975287124464881 0.692564646662274
0 0.7090255065787381 0.5043163299992666
0 0.5669872981077819 0.583333333333331
0 0.5638129342155496 0.422220446824228
0 0.4250635842210114 0.5009256300262583
0 0.421266030862663 0.3399105658185371
0 0.422649730810376 0.6666666666666641
0 0.2722221709498887 0.4199000080986984
0 0.8558140217517579 0.4175037597021233
0 0.4209213154057616 0.8318012084636078
0 0.4220429753551876 0.1691750301123359
0 0.6967684076365566 0.3089649537937649
0 0.7514957068082694 0.8613549960618434
0 0.1369493419813702 0.7528831044824418
0 0.7514051943308966 0.1388270992305415
0 0.2555622040077321 0.139278356241809
0 0.3131019839180586 0.5784344142880582
0 0.1148745817404412 0.4194237047101675
0 0.3044802942638072 0.2661276371112272
0 0.2820285491203464 0.7120763953229133
0 0.5502404735808379 0.7209936490538889
0 0.5403355914375439 0.2779307368082873
0 0.8779915320718531 0.8779915320718531
0 0.1220084679281459 0.1220084679281459
0 0.1220084679281455 0.8779915320718541
0 0.8779915320718541 0.1220084679281456
2 2 0 34
110
111
112
113
114
115
116
117
118
119
120
121
122
123
124
125
126
127
128
129
130
131
132
133
134
135
136
137
138
139
140
141
142
143
0.5833333333333316 0 0.8556624327025939
0.5815109568340523 0 0.1508426476087526
0.1493826874925709 0 0.5977876091177626
0.8506173125074281 0 0.5977876091177629
0.2623742252847558 0 0.1513080901435648
0.2507062282134787 0 0.8588713258240283
0.8611620212026556 0 0.2477062749977592
0.7492937717865189 0 0.858871325824028
0.692564646662274 0 0.6975287124464881
0.5043163299992666 0 0.7090255065787381
0.583333333333331 0 0.5669872981077819
0.422220446824228 0 0.5638129342155496
0.5009256300262583 0 0.4250635842210114
0.3399105658185371 0 0.421266030862663
0.6666666666666641 0 0.422649730810376
0.4199000080986984 0 0.2722221709498887
0.4175037597021233 0 0.8558140217517579
0.8318012084636078 0 0.4209213154057616
0.1691750301123359 0 0.4220429753551876
0.3089649537937649 0 0.6967684076365566
0.8613549960618434 0 0.7514957068082694
0.7528831044824418 0 0.1369493419813702
0.1388270992305415 0 0.7514051943308966
0.139278356241809 0 0.2555622040077321
0.5784344142880582 0 0.3131019839180586
0.4194237047101675 0 0.1148745817404412
0.2661276371112272 0 0.3044802942638072
0.7120763953229133 0 0.2820285491203464
0.7209936490538889 0 0.5502404735808379
0.2779307368082873 0 0.5403355914375439
0.8779915320718531 0 0.8779915320718531
0.1220084679281459 0 0.1220084679281459
0.8779915320718541 0 0.1220084679281455
0.1220084679281456 0 0.8779915320718541
2 3 0 34
144
145
146
147
148
149
150
151
152
153
154
155
156
157
158
159
160
161
162
163
164
165
166
167
168
169
170
171
172
173
174
175
176
177
0.5977876091177629 0.8506173125074281 1
0.5977876091177626 0.1493826874925709 1
0.1508426476087526 0.5815109568340523 1
0.8556624327025939 0.5833333333333316 1
0.1513080901435648 0.2623742252847558 1
0.8588713258240283 0.2507062282134787 1
0.2477062749977592 0.8611620212026556 1
0.858871325824028 0.7492937717865189 1
0.6975287124464881 0.692564646662274 1
0.7090255065787381 0.5043163299992666 1
0.5669872981077819 0.583333333333331 1
0.5638129342155496 0.422220446824228 1
0.4250635842210114 0.5009256300262583 1
0.421266030862663 0.3399105658185371 1
0.422649730810376 0.6666666666666641 1
0.2722221709498887 0.4199000080986984 1
0.8558140217517579 0.4175037597021233 1
0.4209213154057616 0.8318012084636078 1
0.4220429753551876 0.1691750301123359 1
0.6967684076365566 0.3089649537937649 1
0.7514957068082694 0.8613549960618434 1
0.1369493419813702 0.7528831044824418 1
0.7514051943308966 0.1388270992305415 1
0.2555622040077321 0.139278356241809 1
0.3131019839180586 0.5784344142880582 1
0.1148745817404412 0.4194237047101675 1
0.3044802942638072 0.2661276371112272 1
0.2820285491203464 0.7120763953229133 1
0.5502404735808379 0.7209936490538889 1
0.5403355914375439 0.2779307368082873 1
0.8779915320718531 0.8779915320718531 1
0.1220084679281459 0.1220084679281459 1
0.1220084679281455 0.8779915320718541 1
0.8779915320718541 0.1220084679281456 1
2 4 0 34
178
179
180
181
182
183
184
185
186
187
188
189
190
191
192
193
194
195
196
197
198
199
200
201
202
203
204
205
206
207
208
209
210
211
0.8506173125074281 1 0.5977876091177629
0.1493826874925709 1 0.5977876091177626
0.5815109568340523 1 0.1508426476087526
0.5833333333333316 1 0.8556624327025939
0.1356302602983094 1 0.2458798294733582
0.2507062282134787 1 0.8588713258240283
0.8611620212026556 1 0.2477062749977592
0.7492937717865189 1 0.858871325824028
0.692564646662274 1 0.6975287124464881
0.5043163299992666 1 0.7090255065787381
0.583333333333331 1 0.5669872981077819
0.422220446824228 1 0.5638129342155496
0.5009256300262583 1 0.4250635842210114
0.6666666666666641 1 0.422649730810376
0.3400905403382404 1 0.421369939200061
0.4404659175556332 1 0.2835712984850789
0.4175037597021233 1 0.8558140217517579
0.1687852027634295 1 0.4203907139583832
0.8318012084636078 1 0.4209213154057616
0.308964953793765 1 0.6967684076365565
0.8613549960618434 1 0.7514957068082694
0.7528831044824418 1 0.1369493419813702
0.1388270992305415 1 0.7514051943308966
0.2418072307765988 1 0.1313072671406492
0.4059952396911892 1 0.1351634612227941
0.5825475961794452 1 0.3153718094250966
0.2832075760009826 1 0.2833193598962179
0.7127619256381444 1 0.2824068533715194
0.7209936490538889 1 0.5502404735808379
0.2778887662424467 1 0.5400259208256625
0.8779915320718531 1 0.8779915320718531
0.8779915320718541 1 0.1220084679281455
0.1220084679281456 1 0.8779915320718541
0.1211598774258424 1 0.1211598774258424
2 5 0 34
212
213
214
215
216
217
218
219
220
221
222
223
224
225
226
227
228
229
230
231
232
233
234
235
236
237
238
239
240
241
242
243
244
245
0.5977876091177629 0.8506173125074279 0
0.5977876091177626 0.1493826874925709 0
0.1508426476087527 0.5815109568340524 0
0.8556624327025939 0.5833333333333316 0
0.1513080901435648 0.2623742252847558 0
0.8588713258240283 0.2507062282134787 0
0.2477062749977593 0.8611620212026556 0
0.858871325824028 0.7492937717865189 0
0.697528712446488 0.6925646466622739 0
0.7090255065787379 0.5043163299992666 0
0.5669872981077819 0.5833333333333311 0
0.5638129342155495 0.4222204468242281 0
0.4250635842210114 0.5009256300262586 0
0.421266030862663 0.3399105658185371 0
0.4226497308103761 0.6666666666666643 0
0.2722221709498887 0.4199000080986987 0
0.4209213154057616 0.8318012084636077 0
0.8558140217517579 0.4175037597021233 0
0.4220429753551876 0.1691750301123359 0
0.6967684076365563 0.308964953793765 0
0.7514957068082695 0.8613549960618434 0
0.7514051943308966 0.1388270992305415 0
0.1369493419813703 0.7528831044824418 0
0.2555622040077321 0.139278356241809 0
0.3131019839180587 0.5784344142880585 0
0.1148745817404412 0.4194237047101676 0
0.3044802942638073 0.2661276371112273 0
0.2820285491203464 0.7120763953229133 0
0.5502404735808378 0.7209936490538891 0
0.5403355914375439 0.2779307368082874 0
0.8779915320718531 0.8779915320718531 0
0.1220084679281459 0.1220084679281459 0
0.1220084679281456 0.8779915320718541 0
0.8779915320718541 0.1220084679281456 0
2 6 0 34
246
247
248
249
250
251
252
253
254
255
256
257
258
259
260
261
262
263
264
265
266
267
268
269
270
271
272
273
274
275
276
277
278
279
1 0.5833333333333316 0.8556624327025941
1 0.5815109568340524 0.1508426476087527
1 0.1493826874925711 0.5977876091177627
1 0.8506173125074283 0.597787609117763
1 0.1356302602983094 0.2458798294733581
1 0.8611620212026556 0.2477062749977592
1 0.2507062282134787 0.8588713258240283
1 0.7492937717865187 0.8588713258240285
1 0.6925646466622742 0.697528712446488
1 0.5043163299992668 0.7090255065787379
1 0.5833333333333319 0.5669872981077819
1 0.4222204468242287 0.5638129342155495
1 0.5009256300262592 0.4250635842210114
1 0.666666666666665 0.4226497308103759
1 0.340090540338241 0.421369939200061
1 0.4404659175556339 0.2835712984850788
1 0.3088453690744141 0.6967467520581047
1 0.1687852027634298 0.4203907139583832
1 0.4134224323256369 0.8533843361939107
1 0.8318012084636079 0.4209213154057614
1 0.8613549960618433 0.7514957068082695
1 0.1388128629544283 0.7514026162858429
1 0.7528831044824418 0.1369493419813703
1 0.2418072307765989 0.1313072671406492
1 0.4059952396911893 0.135163461222794
1 0.5825475961794457 0.3153718094250967
1 0.283207576000983 0.2833193598962177
1 0.7127619256381447 0.2824068533715194
1 0.7209936490538894 0.5502404735808372
1 0.2778648492985769 0.5400215897099722
1 0.8779915320718527 0.8779915320718527
1 0.1220084679281455 0.8779915320718541
1 0.8779915320718541 0.1220084679281456
1 0.1211598774258424 0.1211598774258424
2 7 0 54
280
281
282
283
284
285
286
287
288
289
290
291
292
293
294
295
296
297
298
299
300
301
302
303
304
305
306
307
308
309
310
311
312
313
314
315
316
317
318
319
320
321
322
323
324
325
326
327
328
329
330
331
332
333
0.774585576223828 0.6419269601012847 0.4171779055671936
0.7028718707890482 0.6417251145178124 0.7028718707890886
0.5742562584219546 0.6417251145177406 0.2228718707887898
0.7847971655093191 0.6248925900494585 0.575448097846105
0.6895255155130022 0.7475365401660822 0.5721508160185063
0.5652703043835118 0.7321930593644085 0.7103001915089
0.5232500451430322 0.8126304307526606 0.5642000714037984
0.4046854043102563 0.7507911321620335 0.6744102516407398
0.6450496176825316 0.7727125914142987 0.4164030449463068
0.4700078162916516 0.8031067572847573 0.4018839329940103
0.3595190299143921 0.7861101699563986 0.5283913312707802
0.3221193043280256 0.7359295009642464 0.3771353237011708
0.4365514290403543 0.718548465393555 0.2750314530488741
0.310537819838647 0.6121608952388409 0.2677845486025343
0.4521536166265944 0.6371293524889875 0.7851425332777208
0.3740360149323165 0.601170614923205 0.2237798321231251
0.3340858120806747 0.452493586892972 0.2305271387304925
0.7118336651938011 0.3549838534707412 0.3089586025585943
0.7771281292108775 0.3582748854815605 0.5742562584218623
0.2416880310445013 0.6888658988815878 0.5021445125281369
0.5742562584251677 0.3582748854763967 0.7771281292073511
0.2208667936766944 0.4953293887401058 0.3435939946225534
0.2763691228602581 0.3394040462908019 0.3369105446635413
0.1992459779303097 0.3941061242656203 0.4729166971944697
0.2919933409707759 0.25727081010203 0.4853108825664932
0.2517726983712411 0.3370426629650335 0.6192816542163023
0.4004818660150651 0.2315658895344916 0.357034027311574
0.4371236351969628 0.1865803042406688 0.5146511794502594
0.3018054002585947 0.6278980822633509 0.7162428754588259
0.3669448199547531 0.4952031568639955 0.7909867855402638
0.5572422887655821 0.2010452553851372 0.4012610459385966
0.5965122922477427 0.2007462121331212 0.5594352411655862
0.1943397534788301 0.4690408866894067 0.589517300001952
0.5225881760371909 0.2751682055660469 0.2734157143248421
0.4743536182418726 0.2287066855902929 0.6677563729320356
0.7068303467077106 0.2599521219837608 0.4552985018073334
0.7001152061050073 0.6385558335734033 0.2922593316937442
0.5407364924561836 0.3133940815769972 0.2432534919577777
0.7861470785600069 0.3789995077849391 0.4233271213838541
0.7143352293665792 0.3558851580224768 0.6889214698602817
0.2289096392032429 0.6241371378073605 0.3838105542655423
0.4105645101059572 0.3149313367815451 0.2547432303850785
0.3493056398046926 0.2403562329762928 0.6107985742284882
0.3796063640902861 0.3310489363471797 0.7436409459081538
0.6192464773793639 0.2619376654700563 0.6775009929852956
0.2478485830550025 0.4636757507887216 0.6936497143087667
0.1848316369062644 0.5532719686733382 0.4848013073429947
0.6239294450368498 0.6101736416985217 0.7736846019193337
0.563056891458648 0.7417800791555312 0.300084463427383
0.503381510098766 0.3923640011658996 0.8013354561687647
0.290641208413929 0.7127225462934565 0.6154037030777103
0.2127068821455524 0.5980443444798784 0.601242140183727
0.7004372931035254 0.2679313207819269 0.5914823461620355
0.6280722745538547 0.2674870538828323 0.3212957124786392
3 1 0 21
334
335
336
337
338
339
340
341
342
343
344
345
346
347
348
349
350
351
352
353
354
0.2077908331400473 0.7912056592631601 0.2013473158900977
0.2002146029395266 0.800238189510146 0.7857461491520134
0.8018889624048168 0.8018889624048167 0.8018889624048164
0.7850531126697051 0.1814752224353652 0.7468600449037754
0.2053177085182248 0.2057987278190165 0.7932433548948326
0.2547622724178357 0.2124438552323973 0.1851242607983596
0.8032533714289278 0.1989416527251297 0.1980673463313169
0.8018420006320337 0.8005392274551116 0.1986660892036184
0.1695902061623533 0.1811976273627705 0.3583434769647809
0.1539769328207014 0.7815408096918697 0.3833625641590553
0.8472500366846039 0.1979305721651585 0.5340000690688576
0.2029722358955674 0.8448641316158561 0.5557407376501229
0.4348576820560308 0.1630990636306272 0.1733827756493245
0.8215650655628391 0.571209133971448 0.8215650655628391
0.1481725175502706 0.6025553072149057 0.2418917909422729
0.837387247514407 0.3314323748484116 0.837387247514407
0.1852470550367639 0.1737371989660875 0.5997756621658626
0.6241044701290183 0.1701453394514963 0.1736693308895433
0.5520749325300179 0.1775840504157385 0.8251960622952099
0.1574929907463042 0.3562814649861501 0.2091873272863484
0.5134239796758366 0.8080304649990023 0.1465793366788502
$EndNodes
$Elements
31 1821 1 1821
0 1 15 1
1 1 
0 2 15 1
2 2 
0 3 15 1
3 3 
0 4 15 1
4 4 
0 5 15 1
5 5 
0 6 15 1
6 6 
0 7 15 1
7 7 
0 8 15 1
8 8 
0 9 15 1
9 9 
0 10 15 1
10 10 
1 1 1 6
11 1 11 
12 11 12 
13 12 13 
14 13 14 
15 14 15 
16 15 2 
1 2 1 6
17 1 16 
18 16 17 
19 17 18 
20 18 19 
21 19 20 
22 20 3 
1 3 1 6
23 3 21 
24 21 22 
25 22 23 
26 23 24 
27 24 25 
28 25 4 
1 4 1 6
29 2 26 
30 26 27 
31 27 28 
32 28 29 
33 29 30 
34 30 4 
1 5 1 6
35 1 31 
36 31 32 
37 32 33 
38 33 34 
39 34 35 
40 35 5 
1 6 1 6
41 2 36 
42 36 37 
43 37 38 
44 38 39 
45 39 40 
46 40 6 
1 7 1 6
47 5 41 
48 41 42 
49 42 43 
50 43 44 
51 44 45 
52 45 6 
1 8 1 6
53 6 46 
54 46 47 
55 47 48 
56 48 49 
57 49 50 
58 50 7 
1 9 1 6
59 4 51 
60 51 52 
61 52 53 
62 53 54 
63 54 55 
64 55 7 
1 10 1 6
65 3 56 
66 56 57 
67 57 58 
68 58 59 
69 59 60 
70 60 8 
1 11 1 6
71 8 61 
72 61 62 
73 62 63 
74 63 64 
75 64 65 
76 65 7 
1 12 1 6
77 5 66 
78 66 67 
79 67 68 
80 68 69 
81 69 70 
82 70 8 
1 13 1 6
83 9 71 
84 71 72 
85 72 73 
86 73 74 
87 74 75 
88 75 10 
2 1 2 90
89 1 11 107 
90 16 1 107 
91 15 2 108 
92 2 26 108 
93 3 20 109 
94 21 3 109 
95 4 25 106 
96 30 4 106 
97 11 12 80 
98 11 80 107 
99 12 13 101 
100 80 12 101 
101 13 14 78 
102 13 78 101 
103 14 15 97 
104 78 14 97 
105 97 15 108 
106 17 16 99 
107 99 16 107 
108 18 17 94 
109 94 17 99 
110 19 18 77 
111 77 18 94 
112 20 19 98 
113 19 77 98 
114 20 98 109 
115 22 21 81 
116 81 21 109 
117 23 22 92 
118 22 81 92 
119 24 23 79 
120 79 23 92 
121 25 24 83 
122 24 79 83 
123 25 83 106 
124 26 27 82 
125 26 82 108 
126 27 28 93 
127 82 27 93 
128 28 29 76 
129 28 76 93 
130 29 30 96 
131 76 29 96 
132 96 30 106 
133 84 76 96 
134 76 84 104 
135 93 76 104 
136 77 94 105 
137 77 95 98 
138 95 77 105 
139 91 78 100 
140 78 91 101 
141 78 97 103 
142 100 78 103 
143 83 79 84 
144 84 79 85 
145 85 79 92 
146 91 80 101 
147 80 91 102 
148 99 80 102 
149 80 99 107 
150 92 81 95 
151 95 81 98 
152 98 81 109 
153 82 93 103 
154 97 82 103 
155 82 97 108 
156 83 84 96 
157 83 96 106 
158 84 85 86 
159 84 86 104 
160 86 85 87 
161 87 85 95 
162 85 92 95 
163 86 87 88 
164 86 88 90 
165 86 90 104 
166 88 87 89 
167 89 87 105 
168 87 95 105 
169 88 89 91 
170 90 88 100 
171 88 91 100 
172 91 89 102 
173 89 94 102 
174 94 89 105 
175 93 90 103 
176 90 93 104 
177 90 100 103 
178 94 99 102 
2 2 2 90
179 11 1 141 
180 1 31 141 
181 2 15 143 
182 36 2 143 
183 35 5 142 
184 5 41 142 
185 6 40 140 
186 45 6 140 
187 12 11 133 
188 133 11 141 
189 13 12 128 
190 128 12 133 
191 14 13 112 
192 112 13 128 
193 15 14 132 
194 14 112 132 
195 15 132 143 
196 31 32 114 
197 31 114 141 
198 32 33 135 
199 114 32 135 
200 33 34 111 
201 33 111 135 
202 34 35 131 
203 111 34 131 
204 131 35 142 
205 37 36 115 
206 115 36 143 
207 38 37 126 
208 37 115 126 
209 39 38 110 
210 110 38 126 
211 40 39 117 
212 39 110 117 
213 40 117 140 
214 41 42 116 
215 41 116 142 
216 42 43 127 
217 116 42 127 
218 43 44 113 
219 43 113 127 
220 44 45 130 
221 113 44 130 
222 130 45 140 
223 117 110 118 
224 118 110 119 
225 119 110 126 
226 125 111 134 
227 111 125 135 
228 111 131 137 
229 134 111 137 
230 112 128 139 
231 112 129 132 
232 129 112 139 
233 118 113 130 
234 113 118 138 
235 127 113 138 
236 125 114 135 
237 114 125 136 
238 133 114 136 
239 114 133 141 
240 126 115 129 
241 129 115 132 
242 132 115 143 
243 116 127 137 
244 131 116 137 
245 116 131 142 
246 117 118 130 
247 117 130 140 
248 118 119 120 
249 118 120 138 
250 120 119 121 
251 121 119 129 
252 119 126 129 
253 120 121 122 
254 120 122 124 
255 120 124 138 
256 122 121 123 
257 123 121 139 
258 121 129 139 
259 122 123 125 
260 124 122 134 
261 122 125 134 
262 125 123 136 
263 123 128 136 
264 128 123 139 
265 127 124 137 
266 124 127 138 
267 124 134 137 
268 128 133 136 
2 3 2 90
269 2 175 26 
270 36 175 2 
271 30 176 4 
272 4 176 51 
273 6 177 40 
274 46 177 6 
275 7 174 50 
276 55 174 7 
277 26 148 27 
278 26 175 148 
279 27 169 28 
280 148 169 27 
281 28 146 29 
282 28 169 146 
283 29 165 30 
284 146 165 29 
285 165 176 30 
286 37 167 36 
287 167 175 36 
288 38 162 37 
289 162 167 37 
290 39 145 38 
291 145 162 38 
292 40 166 39 
293 39 166 145 
294 40 177 166 
295 47 149 46 
296 149 177 46 
297 48 160 47 
298 47 160 149 
299 49 147 48 
300 147 160 48 
301 50 151 49 
302 49 151 147 
303 50 174 151 
304 51 150 52 
305 51 176 150 
306 52 161 53 
307 150 161 52 
308 53 144 54 
309 53 161 144 
310 54 164 55 
311 144 164 54 
312 164 174 55 
313 152 164 144 
314 144 172 152 
315 161 172 144 
316 145 173 162 
317 145 166 163 
318 163 173 145 
319 159 168 146 
320 146 169 159 
321 146 171 165 
322 168 171 146 
323 151 152 147 
324 152 153 147 
325 153 160 147 
326 159 169 148 
327 148 170 159 
328 167 170 148 
329 148 175 167 
330 160 163 149 
331 163 166 149 
332 166 177 149 
333 150 171 161 
334 165 171 150 
335 150 176 165 
336 151 164 152 
337 151 174 164 
338 152 154 153 
339 152 172 154 
340 154 155 153 
341 155 163 153 
342 153 163 160 
343 154 156 155 
344 154 158 156 
345 154 172 158 
346 156 157 155 
347 157 173 155 
348 155 173 163 
349 156 159 157 
350 158 168 156 
351 156 168 159 
352 159 170 157 
353 157 170 162 
354 162 173 157 
355 161 171 158 
356 158 172 161 
357 158 171 168 
358 162 170 167 
2 4 2 90
359 21 211 3 
360 3 211 56 
361 4 210 25 
362 51 210 4 
363 7 208 55 
364 65 208 7 
365 60 209 8 
366 8 209 61 
367 22 182 21 
368 182 211 21 
369 23 195 22 
370 22 195 182 
371 24 179 23 
372 179 195 23 
373 25 200 24 
374 24 200 179 
375 25 210 200 
376 52 183 51 
377 183 210 51 
378 53 194 52 
379 52 194 183 
380 54 181 53 
381 181 194 53 
382 55 185 54 
383 54 185 181 
384 55 208 185 
385 56 201 57 
386 56 211 201 
387 57 202 58 
388 201 202 57 
389 58 180 59 
390 58 202 180 
391 59 199 60 
392 180 199 59 
393 199 209 60 
394 61 184 62 
395 61 209 184 
396 62 196 63 
397 184 196 62 
398 63 178 64 
399 63 196 178 
400 64 198 65 
401 178 198 64 
402 198 208 65 
403 186 198 178 
404 178 206 186 
405 196 206 178 
406 179 207 195 
407 179 200 197 
408 197 207 179 
409 180 202 193 
410 193 203 180 
411 180 205 199 
412 203 205 180 
413 185 186 181 
414 186 187 181 
415 187 194 181 
416 195 204 182 
417 182 204 201 
418 201 211 182 
419 194 197 183 
420 197 200 183 
421 200 210 183 
422 184 205 196 
423 199 205 184 
424 184 209 199 
425 185 198 186 
426 185 208 198 
427 186 188 187 
428 186 206 188 
429 188 189 187 
430 189 197 187 
431 187 197 194 
432 188 190 189 
433 188 191 190 
434 188 206 191 
435 190 192 189 
436 192 207 189 
437 189 207 197 
438 191 203 190 
439 190 193 192 
440 190 203 193 
441 196 205 191 
442 191 206 196 
443 191 205 203 
444 193 204 192 
445 192 204 195 
446 195 207 192 
447 202 204 193 
448 201 204 202 
2 5 2 90
449 1 16 243 
450 31 1 243 
451 20 3 244 
452 3 56 244 
453 5 35 245 
454 66 5 245 
455 60 8 242 
456 8 70 242 
457 16 17 216 
458 16 216 243 
459 17 18 237 
460 216 17 237 
461 18 19 214 
462 18 214 237 
463 19 20 234 
464 214 19 234 
465 234 20 244 
466 32 31 235 
467 235 31 243 
468 33 32 230 
469 230 32 235 
470 34 33 213 
471 213 33 230 
472 35 34 233 
473 34 213 233 
474 35 233 245 
475 56 57 218 
476 56 218 244 
477 57 58 228 
478 218 57 228 
479 58 59 212 
480 58 212 228 
481 59 60 232 
482 212 59 232 
483 232 60 242 
484 67 66 217 
485 217 66 245 
486 68 67 229 
487 67 217 229 
488 69 68 215 
489 215 68 229 
490 70 69 219 
491 69 215 219 
492 70 219 242 
493 220 212 232 
494 212 220 240 
495 228 212 240 
496 213 230 241 
497 213 231 233 
498 231 213 241 
499 227 214 236 
500 214 227 237 
501 214 234 239 
502 236 214 239 
503 219 215 220 
504 220 215 221 
505 221 215 229 
506 227 216 237 
507 216 227 238 
508 235 216 238 
509 216 235 243 
510 229 217 231 
511 231 217 233 
512 233 217 245 
513 218 228 239 
514 234 218 239 
515 218 234 244 
516 219 220 232 
517 219 232 242 
518 220 221 222 
519 220 222 240 
520 222 221 223 
521 223 221 231 
522 221 229 231 
523 222 223 224 
524 222 224 226 
525 222 226 240 
526 224 223 225 
527 225 223 241 
528 223 231 241 
529 224 225 227 
530 226 224 236 
531 224 227 236 
532 227 225 238 
533 225 230 238 
534 230 225 241 
535 228 226 239 
536 226 228 240 
537 226 236 239 
538 230 235 238 
2 6 2 90
539 5 279 41 
540 66 279 5 
541 45 277 6 
542 6 277 46 
543 50 276 7 
544 7 276 65 
545 61 278 8 
546 8 278 70 
547 41 250 42 
548 41 279 250 
549 42 263 43 
550 250 263 42 
551 43 248 44 
552 43 263 248 
553 44 267 45 
554 248 267 44 
555 267 277 45 
556 46 252 47 
557 46 277 252 
558 47 264 48 
559 252 264 47 
560 48 246 49 
561 48 264 246 
562 49 253 50 
563 246 253 49 
564 253 276 50 
565 62 251 61 
566 251 278 61 
567 63 265 62 
568 62 265 251 
569 64 249 63 
570 249 265 63 
571 65 266 64 
572 64 266 249 
573 65 276 266 
574 67 269 66 
575 269 279 66 
576 68 270 67 
577 67 270 269 
578 69 247 68 
579 247 270 68 
580 70 268 69 
581 69 268 247 
582 70 278 268 
583 246 254 253 
584 246 255 254 
585 246 264 255 
586 261 270 247 
587 247 271 261 
588 268 273 247 
589 247 273 271 
590 262 267 248 
591 248 275 262 
592 263 275 248 
593 249 266 254 
594 254 274 249 
595 249 274 265 
596 250 272 263 
597 269 272 250 
598 250 279 269 
599 265 273 251 
600 251 273 268 
601 268 278 251 
602 262 264 252 
603 252 267 262 
604 252 277 267 
605 254 266 253 
606 266 276 253 
607 255 256 254 
608 256 274 254 
609 255 257 256 
610 255 262 257 
611 255 264 262 
612 257 258 256 
613 258 259 256 
614 259 274 256 
615 257 260 258 
616 257 275 260 
617 262 275 257 
618 258 271 259 
619 260 261 258 
620 261 271 258 
621 259 273 265 
622 265 274 259 
623 271 273 259 
624 260 272 261 
625 263 272 260 
626 260 275 263 
627 261 272 270 
628 270 272 269 
2 7 2 118
629 9 71 282 
630 71 9 317 
631 9 282 295 
632 9 295 317 
633 10 75 300 
634 75 10 327 
635 294 10 309 
636 10 294 327 
637 10 300 329 
638 309 10 329 
639 72 71 297 
640 71 72 316 
641 282 71 316 
642 297 71 317 
643 72 73 280 
644 73 72 318 
645 72 280 316 
646 72 297 318 
647 73 74 283 
648 74 73 298 
649 280 73 283 
650 298 73 318 
651 74 75 281 
652 75 74 319 
653 74 281 283 
654 74 298 319 
655 281 75 327 
656 300 75 319 
657 280 283 284 
658 280 284 288 
659 280 288 316 
660 283 281 284 
661 284 281 285 
662 285 281 327 
663 282 292 295 
664 292 282 328 
665 282 316 328 
666 284 285 286 
667 284 286 288 
668 286 285 287 
669 287 285 294 
670 294 285 327 
671 286 287 290 
672 288 286 289 
673 289 286 290 
674 290 287 330 
675 287 294 308 
676 287 308 330 
677 288 289 328 
678 316 288 328 
679 289 290 291 
680 289 291 292 
681 289 292 328 
682 291 290 299 
683 299 290 330 
684 292 291 293 
685 293 291 320 
686 291 299 320 
687 292 293 295 
688 295 293 296 
689 296 293 301 
690 301 293 320 
691 308 294 309 
692 295 296 317 
693 296 301 302 
694 296 302 321 
695 317 296 321 
696 297 315 318 
697 315 297 333 
698 297 317 333 
699 315 298 318 
700 298 315 332 
701 319 298 332 
702 320 299 326 
703 326 299 331 
704 299 330 331 
705 300 314 323 
706 314 300 324 
707 300 319 324 
708 300 323 329 
709 302 301 303 
710 303 301 326 
711 301 320 326 
712 302 303 304 
713 302 304 306 
714 302 306 321 
715 304 303 305 
716 305 303 312 
717 312 303 326 
718 304 305 322 
719 306 304 307 
720 307 304 322 
721 305 312 325 
722 322 305 323 
723 323 305 325 
724 306 307 310 
725 306 310 313 
726 306 313 321 
727 310 307 311 
728 311 307 314 
729 314 307 322 
730 308 309 325 
731 308 325 331 
732 330 308 331 
733 309 323 325 
734 323 309 329 
735 310 311 315 
736 313 310 333 
737 310 315 333 
738 311 314 324 
739 315 311 332 
740 311 324 332 
741 325 312 331 
742 312 326 331 
743 313 317 321 
744 317 313 333 
745 314 322 323 
746 324 319 332 
3 1 4 1075
747 270 72 229 297 
748 229 247 72 270 
749 287 294 161 335 
750 93 325 169 338 
751 265 288 196 341 
752 194 287 161 335 
753 287 194 161 285 
754 294 287 161 285 
755 169 325 159 338 
756 272 263 318 340 
757 161 294 171 335 
758 178 249 284 196 
759 127 340 315 344 
760 196 249 284 265 
761 280 288 265 341 
762 229 270 297 340 
763 72 247 229 71 
764 146 308 76 335 
765 274 284 249 265 
766 297 72 229 71 
767 196 284 288 265 
768 181 144 161 285 
769 181 161 194 285 
770 308 146 76 325 
771 146 169 93 325 
772 292 334 202 354 
773 271 72 316 247 
774 144 285 181 336 
775 144 172 161 285 
776 76 104 308 325 
777 204 202 292 334 
778 172 294 161 285 
779 316 247 215 341 
780 127 263 340 344 
781 333 315 137 340 
782 126 338 162 352 
783 247 72 316 71 
784 325 308 146 309 
785 308 168 146 309 
786 84 104 308 76 
787 76 308 84 335 
788 261 72 270 297 
789 239 334 292 354 
790 84 104 331 308 
791 204 292 291 334 
792 178 284 249 336 
793 284 280 288 265 
794 144 152 285 336 
795 229 297 231 340 
796 273 271 316 247 
797 315 127 137 340 
798 162 338 323 352 
799 327 285 152 336 
800 229 247 215 71 
801 284 274 280 265 
802 93 76 146 325 
803 194 150 183 335 
804 333 315 124 137 
805 331 84 330 345 
806 171 308 146 335 
807 146 169 325 159 
808 328 205 341 354 
809 84 335 330 345 
810 144 152 172 285 
811 330 335 287 345 
812 171 294 308 335 
813 324 311 332 337 
814 187 194 287 285 
815 284 206 178 196 
816 270 247 72 261 
817 327 172 152 285 
818 270 272 297 340 
819 273 247 316 341 
820 193 204 202 292 
821 274 283 284 280 
822 186 181 285 336 
823 328 203 205 354 
824 168 171 308 146 
825 251 196 184 341 
826 316 215 247 71 
827 331 330 84 335 
828 161 171 294 158 
829 287 194 197 335 
830 310 333 315 124 
831 215 220 316 341 
832 161 150 194 335 
833 159 325 146 309 
834 263 250 116 340 
835 272 260 318 263 
836 318 315 297 340 
837 104 331 308 325 
838 104 76 93 325 
839 239 236 293 348 
840 129 126 314 338 
841 315 124 137 127 
842 202 193 292 354 
843 323 162 170 338 
844 76 96 165 335 
845 228 334 239 354 
846 318 263 260 344 
847 219 247 268 341 
848 308 294 287 335 
849 204 193 291 292 
850 272 261 270 297 
851 187 181 194 285 
852 281 254 283 336 
853 115 167 126 338 
854 228 202 334 354 
855 193 289 291 292 
856 308 331 84 335 
857 265 196 251 341 
858 127 263 116 340 
859 322 129 314 338 
860 288 205 196 341 
861 103 325 93 338 
862 169 159 148 338 
863 138 332 337 344 
864 323 159 325 338 
865 134 310 313 346 
866 146 76 165 335 
867 167 162 126 338 
868 144 181 185 336 
869 180 341 205 354 
870 331 330 299 345 
871 164 144 185 336 
872 124 310 333 137 
873 299 85 331 345 
874 293 334 239 348 
875 136 339 306 346 
876 218 202 201 334 
877 265 273 280 341 
878 203 180 205 354 
879 294 171 308 168 
880 167 170 162 338 
881 249 266 198 336 
882 229 297 71 231 
883 291 192 343 345 
884 159 146 168 309 
885 134 346 313 351 
886 218 228 202 334 
887 103 90 93 325 
888 305 325 103 338 
889 212 232 199 341 
890 186 284 178 336 
891 217 269 270 340 
892 180 212 199 341 
893 215 247 219 341 
894 225 321 238 346 
895 298 74 319 349 
896 170 159 323 338 
897 272 318 297 340 
898 291 290 192 345 
899 206 284 288 196 
900 159 323 325 309 
901 318 72 261 297 
902 161 171 150 335 
903 123 139 304 342 
904 313 310 134 351 
905 178 249 198 336 
906 180 212 341 354 
907 171 146 165 335 
908 229 217 270 340 
909 186 185 181 336 
910 228 239 226 354 
911 227 348 214 353 
912 90 103 305 325 
913 283 254 281 347 
914 310 134 333 137 
915 138 311 332 344 
916 308 294 168 309 
917 261 272 318 297 
918 136 123 306 342 
919 308 330 331 335 
920 281 254 336 347 
921 303 342 304 350 
922 288 328 205 341 
923 204 291 192 343 
924 297 231 340 351 
925 300 163 337 349 
926 206 288 191 196 
927 321 339 238 346 
928 166 163 337 352 
929 157 323 162 170 
930 306 339 136 342 
931 124 315 138 344 
932 298 262 74 349 
933 197 194 183 335 
934 271 72 247 261 
935 300 337 163 352 
936 74 254 283 347 
937 158 294 161 172 
938 133 141 107 339 
939 84 331 85 345 
940 271 72 280 316 
941 215 316 220 71 
942 252 177 149 337 
943 303 91 302 342 
944 171 294 158 168 
945 177 252 277 337 
946 215 219 220 341 
947 284 281 283 336 
948 186 285 284 336 
949 83 200 335 345 
950 166 337 117 352 
951 197 287 335 345 
952 280 273 271 316 
953 290 330 287 345 
954 229 231 217 340 
955 136 306 125 346 
956 274 259 280 265 
957 123 304 306 342 
958 304 342 139 350 
959 257 298 262 74 
960 239 214 236 348 
961 212 220 341 354 
962 227 214 237 353 
963 324 118 311 337 
964 134 333 137 351 
965 199 205 180 341 
966 322 314 323 338 
967 137 333 340 351 
968 311 315 332 344 
969 229 215 221 71 
970 288 205 191 196 
971 282 341 220 354 
972 186 206 178 284 
973 116 137 127 340 
974 268 247 273 341 
975 234 214 334 348 
976 203 288 328 205 
977 90 100 312 305 
978 204 334 291 343 
979 205 184 196 341 
980 129 115 126 338 
981 138 311 315 124 
982 333 134 310 351 
983 204 201 202 334 
984 124 127 315 344 
985 324 337 300 352 
986 91 303 302 353 
987 303 100 91 350 
988 265 251 273 341 
989 134 310 124 137 
990 283 74 255 254 
991 124 138 127 344 
992 91 89 303 353 
993 170 148 159 338 
994 327 336 152 347 
995 98 234 334 348 
996 259 273 280 265 
997 303 91 342 350 
998 157 329 173 352 
999 236 296 293 348 
1000 102 89 91 353 
1001 187 186 181 285 
1002 134 125 310 346 
1003 85 326 320 299 
1004 307 304 123 139 
1005 192 195 343 345 
1006 157 162 323 352 
1007 306 313 310 346 
1008 128 139 123 342 
1009 220 221 215 71 
1010 144 164 152 336 
1011 186 178 198 336 
1012 249 254 266 336 
1013 281 336 327 347 
1014 172 327 294 285 
1015 157 323 329 352 
1016 149 252 337 349 
1017 324 319 300 337 
1018 255 74 283 256 
1019 228 218 239 334 
1020 214 239 334 348 
1021 328 341 282 354 
1022 243 99 107 339 
1023 304 307 322 139 
1024 270 269 272 340 
1025 118 324 119 352 
1026 76 84 96 335 
1027 83 179 200 345 
1028 103 93 82 338 
1029 89 303 301 326 
1030 133 107 80 339 
1031 290 287 197 345 
1032 194 287 197 187 
1033 256 73 283 259 
1034 91 342 102 353 
1035 91 302 342 353 
1036 305 312 90 325 
1037 296 238 225 321 
1038 74 262 255 349 
1039 234 214 239 334 
1040 288 188 206 191 
1041 140 177 277 337 
1042 262 337 298 344 
1043 272 250 263 340 
1044 300 337 319 349 
1045 243 107 141 339 
1046 212 220 232 341 
1047 138 315 311 344 
1048 303 89 301 353 
1049 203 328 193 354 
1050 253 151 336 347 
1051 306 310 125 346 
1052 100 90 103 305 
1053 98 77 234 348 
1054 163 166 337 349 
1055 71 221 229 231 
1056 321 296 238 339 
1057 139 342 128 350 
1058 118 337 324 352 
1059 312 100 303 305 
1060 87 326 320 85 
1061 326 89 303 88 
1062 254 255 283 256 
1063 170 157 323 159 
1064 328 193 289 203 
1065 123 306 304 307 
1066 74 262 257 255 
1067 281 285 327 336 
1068 316 280 273 341 
1069 296 348 227 353 
1070 189 290 287 197 
1071 100 303 305 350 
1072 90 104 93 325 
1073 85 299 320 343 
1074 166 149 177 337 
1075 166 140 117 337 
1076 315 333 297 340 
1077 140 166 177 337 
1078 310 315 311 124 
1079 255 254 74 347 
1080 326 301 89 87 
1081 94 214 77 348 
1082 75 153 163 349 
1083 204 192 195 343 
1084 307 322 139 121 
1085 75 163 300 349 
1086 318 275 298 344 
1087 129 314 126 119 
1088 74 255 347 349 
1089 138 337 113 344 
1090 303 301 302 353 
1091 331 104 312 325 
1092 283 274 256 259 
1093 89 326 87 88 
1094 87 85 320 343 
1095 322 304 139 350 
1096 186 187 286 285 
1097 157 173 162 352 
1098 318 260 275 344 
1099 163 75 155 153 
1100 258 72 261 318 
1101 154 327 294 172 
1102 179 83 79 345 
1103 261 272 260 318 
1104 291 289 192 290 
1105 163 155 75 300 
1106 145 166 117 352 
1107 322 139 121 129 
1108 197 207 290 345 
1109 220 282 316 341 
1110 193 289 292 354 
1111 107 99 80 339 
1112 156 158 294 168 
1113 151 152 336 347 
1114 253 336 254 347 
1115 117 337 118 352 
1116 193 328 289 354 
1117 104 90 312 325 
1118 159 157 323 309 
1119 307 123 306 122 
1120 80 133 339 342 
1121 186 286 284 285 
1122 136 114 339 346 
1123 120 307 314 311 
1124 99 243 216 339 
1125 119 324 314 352 
1126 287 189 197 187 
1127 206 186 188 284 
1128 294 156 168 309 
1129 101 128 342 350 
1130 87 320 95 343 
1131 129 121 322 314 
1132 75 347 153 349 
1133 101 342 91 350 
1134 197 189 290 207 
1135 62 251 196 184 
1136 257 73 74 256 
1137 306 123 136 125 
1138 284 188 206 288 
1139 234 77 214 348 
1140 301 87 320 348 
1141 149 337 166 349 
1142 203 190 288 191 
1143 332 298 337 344 
1144 186 187 188 286 
1145 196 178 249 63 
1146 331 104 86 312 
1147 126 119 314 352 
1148 298 73 257 318 
1149 100 305 103 350 
1150 116 263 42 250 
1151 88 100 303 312 
1152 129 338 322 350 
1153 314 121 307 120 
1154 166 145 163 352 
1155 130 267 248 337 
1156 204 182 334 343 
1157 249 196 63 265 
1158 260 258 261 318 
1159 326 320 301 87 
1160 197 335 200 345 
1161 309 157 323 329 
1162 286 188 186 284 
1163 289 328 292 354 
1164 105 348 301 353 
1165 306 125 310 122 
1166 283 274 259 280 
1167 309 156 157 329 
1168 103 305 338 350 
1169 259 73 283 280 
1170 72 258 73 318 
1171 260 257 73 318 
1172 258 271 72 280 
1173 290 207 192 345 
1174 89 105 301 353 
1175 81 334 182 343 
1176 310 125 134 122 
1177 190 288 289 203 
1178 141 235 243 339 
1179 253 246 151 347 
1180 139 129 322 350 
1181 85 79 84 345 
1182 248 113 130 337 
1183 290 289 192 189 
1184 299 85 326 331 
1185 128 101 112 350 
1186 251 196 265 62 
1187 74 283 281 347 
1188 235 114 135 346 
1189 127 116 263 42 
1190 75 10 155 154 
1191 136 339 133 342 
1192 205 203 288 191 
1193 281 284 285 336 
1194 287 189 187 286 
1195 311 120 307 122 
1196 291 293 320 334 
1197 260 73 258 318 
1198 310 307 306 122 
1199 310 311 307 122 
1200 74 73 283 256 
1201 80 339 99 353 
1202 307 322 121 314 
1203 189 289 192 190 
1204 49 253 246 151 
1205 275 262 298 344 
1206 117 110 145 352 
1207 100 88 90 312 
1208 258 259 271 280 
1209 92 81 182 343 
1210 95 320 87 348 
1211 102 80 99 353 
1212 130 140 277 337 
1213 225 238 296 227 
1214 248 337 262 344 
1215 102 342 80 353 
1216 248 113 337 344 
1217 110 117 118 352 
1218 74 347 75 349 
1219 235 135 230 346 
1220 118 113 138 337 
1221 73 256 258 259 
1222 257 73 298 74 
1223 287 290 189 286 
1224 316 282 328 341 
1225 244 201 211 334 
1226 288 328 289 203 
1227 125 306 123 122 
1228 72 73 258 280 
1229 282 220 316 71 
1230 327 152 153 347 
1231 320 334 293 348 
1232 240 282 226 222 
1233 220 240 282 354 
1234 154 294 158 172 
1235 80 342 339 353 
1236 176 165 106 335 
1237 221 220 222 71 
1238 172 154 327 152 
1239 284 286 188 288 
1240 105 87 301 348 
1241 319 332 298 337 
1242 90 86 104 312 
1243 75 300 319 349 
1244 255 257 74 256 
1245 158 10 294 154 
1246 311 138 120 124 
1247 286 187 287 285 
1248 292 293 291 334 
1249 277 267 130 337 
1250 105 89 301 87 
1251 182 109 211 334 
1252 109 244 211 334 
1253 264 347 255 349 
1254 319 74 75 349 
1255 235 339 114 346 
1256 259 273 271 280 
1257 182 81 109 334 
1258 210 183 150 335 
1259 210 150 176 335 
1260 101 78 112 350 
1261 86 85 84 331 
1262 257 262 298 275 
1263 218 201 244 334 
1264 109 234 244 334 
1265 101 91 78 350 
1266 282 240 226 354 
1267 291 334 320 343 
1268 165 96 106 335 
1269 136 125 114 346 
1270 138 120 118 311 
1271 277 252 267 337 
1272 153 327 154 152 
1273 320 343 334 348 
1274 314 129 121 119 
1275 10 156 309 329 
1276 153 347 160 349 
1277 159 156 157 309 
1278 204 195 182 343 
1279 156 10 158 154 
1280 121 314 119 120 
1281 220 282 222 71 
1282 156 294 10 309 
1283 248 267 262 337 
1284 175 167 115 338 
1285 259 258 73 280 
1286 280 316 288 341 
1287 85 86 326 331 
1288 147 151 246 347 
1289 288 289 286 190 
1290 163 149 166 349 
1291 158 294 10 156 
1292 274 254 283 256 
1293 106 210 176 335 
1294 192 207 195 345 
1295 288 316 328 341 
1296 230 225 238 346 
1297 299 343 85 345 
1298 327 294 10 154 
1299 92 182 195 343 
1300 71 223 221 231 
1301 98 234 109 334 
1302 153 75 327 347 
1303 212 240 220 354 
1304 197 200 179 345 
1305 173 300 163 352 
1306 175 115 143 338 
1307 282 9 226 222 
1308 111 346 134 351 
1309 86 84 104 331 
1310 153 75 155 154 
1311 333 310 313 351 
1312 151 174 253 336 
1313 97 338 132 350 
1314 151 246 49 147 
1315 305 323 325 338 
1316 128 101 13 112 
1317 141 114 235 339 
1318 292 239 295 334 
1319 97 108 143 338 
1320 88 326 86 312 
1321 174 276 253 336 
1322 238 216 339 353 
1323 52 183 194 150 
1324 267 252 262 337 
1325 53 144 161 181 
1326 144 164 185 54 
1327 75 153 327 154 
1328 257 73 258 260 
1329 175 108 82 338 
1330 143 108 175 338 
1331 81 182 22 92 
1332 94 348 105 353 
1333 83 200 106 335 
1334 123 307 139 121 
1335 83 179 24 200 
1336 166 39 145 117 
1337 200 210 106 335 
1338 333 297 340 351 
1339 97 132 112 350 
1340 252 262 337 349 
1341 161 194 53 181 
1342 143 132 97 338 
1343 198 64 266 249 
1344 327 10 75 154 
1345 212 59 199 232 
1346 76 29 165 96 
1347 330 308 287 335 
1348 192 290 189 207 
1349 123 136 128 342 
1350 217 67 270 269 
1351 72 271 258 261 
1352 164 185 208 336 
1353 130 44 248 267 
1354 19 98 77 234 
1355 132 14 97 112 
1356 112 101 13 78 
1357 164 208 174 336 
1358 208 198 276 336 
1359 98 334 95 348 
1360 78 91 100 350 
1361 141 133 114 339 
1362 230 241 225 346 
1363 304 305 303 350 
1364 302 339 306 342 
1365 103 338 97 350 
1366 90 88 86 312 
1367 195 23 92 345 
1368 114 133 136 339 
1369 126 115 37 167 
1370 242 219 268 341 
1371 238 227 216 353 
1372 189 290 289 286 
1373 199 242 209 341 
1374 161 52 194 150 
1375 320 95 343 348 
1376 185 181 144 54 
1377 203 193 180 354 
1378 245 279 269 340 
1379 241 346 213 351 
1380 198 266 276 336 
1381 230 238 339 346 
1382 142 245 131 340 
1383 92 182 22 195 
1384 269 217 245 340 
1385 79 179 24 83 
1386 110 145 39 117 
1387 99 339 216 353 
1388 278 242 268 341 
1389 299 290 291 345 
1390 276 174 208 336 
1391 48 264 160 246 
1392 198 64 249 178 
1393 300 163 155 173 
1394 286 289 189 190 
1395 151 147 152 347 
1396 253 254 246 347 
1397 299 291 343 345 
1398 248 113 44 130 
1399 278 251 209 341 
1400 87 95 85 343 
1401 235 230 238 339 
1402 303 326 88 312 
1403 93 169 27 82 
1404 180 59 199 212 
1405 132 338 129 350 
1406 68 247 215 229 
1407 135 111 33 346 
1408 229 68 247 270 
1409 199 232 242 341 
1410 95 334 81 343 
1411 23 79 92 345 
1412 246 160 48 147 
1413 209 251 184 341 
1414 235 230 339 346 
1415 226 9 224 222 
1416 233 34 131 351 
1417 334 343 95 348 
1418 233 340 231 351 
1419 131 245 233 340 
1420 81 95 98 334 
1421 23 195 179 345 
1422 264 255 262 349 
1423 120 121 307 122 
1424 250 279 142 340 
1425 100 303 91 88 
1426 278 209 242 341 
1427 160 347 264 349 
1428 195 92 343 345 
1429 10 155 329 300 
1430 245 142 279 340 
1431 89 91 303 88 
1432 99 237 94 353 
1433 155 10 75 300 
1434 216 237 99 353 
1435 155 157 156 329 
1436 246 264 160 347 
1437 29 165 146 76 
1438 175 82 148 338 
1439 148 27 169 82 
1440 150 171 165 335 
1441 167 37 126 162 
1442 214 19 77 234 
1443 14 97 112 78 
1444 250 142 116 340 
1445 220 282 240 222 
1446 92 85 343 345 
1447 303 302 304 342 
1448 163 153 160 349 
1449 213 33 111 346 
1450 164 151 152 336 
1451 186 198 185 336 
1452 266 254 253 336 
1453 230 135 33 346 
1454 173 163 145 352 
1455 131 340 233 351 
1456 230 33 213 346 
1457 97 112 78 350 
1458 218 202 57 201 
1459 23 179 79 345 
1460 160 147 246 347 
1461 134 310 122 124 
1462 182 211 201 334 
1463 43 263 127 344 
1464 159 168 156 309 
1465 176 150 165 335 
1466 297 317 231 351 
1467 190 289 193 203 
1468 99 17 94 237 
1469 235 135 32 230 
1470 331 86 326 312 
1471 229 217 67 270 
1472 329 155 157 173 
1473 156 10 155 329 
1474 111 125 134 346 
1475 94 105 89 353 
1476 84 83 96 335 
1477 213 346 111 351 
1478 289 193 192 190 
1479 220 219 232 341 
1480 17 99 216 237 
1481 114 135 32 235 
1482 306 339 321 346 
1483 127 113 43 344 
1484 137 340 131 351 
1485 9 225 296 224 
1486 224 9 225 223 
1487 223 221 222 71 
1488 129 132 115 338 
1489 300 173 329 352 
1490 231 233 217 340 
1491 182 201 204 334 
1492 233 213 34 351 
1493 197 183 200 335 
1494 326 87 86 85 
1495 155 329 300 173 
1496 92 79 85 345 
1497 241 230 213 346 
1498 236 295 239 293 
1499 109 81 98 334 
1500 121 123 307 122 
1501 38 126 162 352 
1502 304 302 306 342 
1503 228 218 202 57 
1504 117 140 130 337 
1505 223 222 9 71 
1506 86 87 326 88 
1507 227 296 225 224 
1508 128 12 101 342 
1509 128 133 12 342 
1510 260 263 275 344 
1511 77 105 94 348 
1512 301 348 296 353 
1513 275 248 262 344 
1514 167 148 170 338 
1515 145 38 162 352 
1516 95 87 105 348 
1517 218 244 234 334 
1518 227 237 216 353 
1519 111 131 34 351 
1520 112 139 128 350 
1521 248 43 113 344 
1522 110 118 119 352 
1523 297 71 231 317 
1524 296 227 236 224 
1525 83 106 96 335 
1526 113 127 138 344 
1527 235 216 243 339 
1528 12 80 101 342 
1529 321 306 302 339 
1530 113 118 130 337 
1531 12 133 80 342 
1532 103 97 78 350 
1533 322 338 305 350 
1534 38 110 126 352 
1535 97 82 108 338 
1536 189 188 286 190 
1537 239 218 234 334 
1538 241 231 223 317 
1539 210 200 183 335 
1540 143 115 132 338 
1541 231 71 223 317 
1542 43 248 263 344 
1543 225 317 321 346 
1544 323 305 322 338 
1545 82 97 103 338 
1546 225 241 317 346 
1547 132 129 112 350 
1548 239 293 295 334 
1549 116 131 137 340 
1550 205 199 184 341 
1551 115 175 36 167 
1552 125 135 114 346 
1553 321 302 296 339 
1554 153 152 147 347 
1555 78 100 103 350 
1556 241 223 225 317 
1557 255 246 254 347 
1558 50 253 151 174 
1559 175 148 167 338 
1560 145 110 38 352 
1561 164 174 151 336 
1562 185 198 208 336 
1563 276 266 253 336 
1564 251 268 273 341 
1565 174 50 253 276 
1566 252 177 46 149 
1567 241 213 231 351 
1568 177 252 46 277 
1569 143 175 36 115 
1570 250 272 269 340 
1571 339 342 302 353 
1572 256 257 73 258 
1573 47 252 149 349 
1574 141 31 243 235 
1575 107 243 16 99 
1576 141 107 11 133 
1577 269 279 250 340 
1578 228 58 202 354 
1579 184 199 209 341 
1580 295 236 296 293 
1581 202 180 193 354 
1582 242 232 219 341 
1583 116 142 131 340 
1584 317 241 231 351 
1585 111 34 213 351 
1586 251 278 268 341 
1587 213 233 231 351 
1588 332 319 324 337 
1589 10 156 155 154 
1590 188 187 189 286 
1591 58 180 202 354 
1592 233 245 217 340 
1593 268 242 70 219 
1594 164 185 55 208 
1595 197 179 207 345 
1596 183 51 210 150 
1597 117 166 40 140 
1598 200 25 83 106 
1599 61 251 209 278 
1600 51 176 210 150 
1601 300 329 323 352 
1602 130 277 140 45 
1603 174 164 55 208 
1604 208 65 276 198 
1605 131 142 35 245 
1606 234 244 20 109 
1607 15 143 97 108 
1608 278 268 242 70 
1609 165 106 30 176 
1610 199 209 242 60 
1611 58 212 180 354 
1612 140 166 40 177 
1613 25 200 210 106 
1614 318 298 315 344 
1615 209 184 251 61 
1616 139 112 129 350 
1617 117 130 118 337 
1618 136 133 128 342 
1619 246 255 264 347 
1620 198 65 276 266 
1621 30 106 165 96 
1622 60 242 199 232 
1623 47 264 252 349 
1624 130 267 277 45 
1625 223 9 225 317 
1626 234 20 98 109 
1627 131 35 233 245 
1628 97 143 15 132 
1629 228 212 58 354 
1630 222 282 9 71 
1631 160 47 149 349 
1632 21 109 182 81 
1633 66 269 217 245 
1634 80 11 107 133 
1635 31 141 114 235 
1636 99 243 16 216 
1637 292 295 293 334 
1638 41 142 250 279 
1639 109 211 21 182 
1640 296 339 302 353 
1641 160 153 147 347 
1642 238 216 235 339 
1643 98 95 77 348 
1644 91 80 102 342 
1645 26 82 175 108 
1646 196 63 265 62 
1647 263 43 127 42 
1648 56 211 244 201 
1649 245 66 269 279 
1650 295 282 226 354 
1651 142 116 41 250 
1652 244 218 56 201 
1653 125 111 135 346 
1654 134 137 111 351 
1655 160 264 47 349 
1656 295 292 282 354 
1657 323 314 300 352 
1658 137 131 111 351 
1659 301 293 296 348 
1660 9 224 222 223 
1661 306 321 313 346 
1662 333 317 297 351 
1663 226 240 228 354 
1664 82 148 26 175 
1665 241 317 346 351 
1666 173 145 162 352 
1667 236 295 226 239 
1668 49 253 151 50 
1669 92 95 81 343 
1670 110 119 126 352 
1671 71 9 223 317 
1672 149 163 160 349 
1673 226 295 9 282 
1674 80 91 101 342 
1675 46 47 252 149 
1676 252 264 262 349 
1677 236 295 224 226 
1678 102 94 89 353 
1679 320 299 291 343 
1680 164 185 54 55 
1681 75 74 281 347 
1682 195 207 179 345 
1683 24 25 83 200 
1684 40 39 166 117 
1685 217 67 269 66 
1686 92 85 95 343 
1687 64 249 178 63 
1688 276 174 7 208 
1689 107 1 243 141 
1690 143 2 175 108 
1691 106 210 4 176 
1692 140 6 277 177 
1693 278 209 8 242 
1694 219 70 268 69 
1695 244 211 3 109 
1696 245 142 5 279 
1697 44 113 248 43 
1698 332 315 298 344 
1699 224 295 9 226 
1700 161 194 52 53 
1701 92 22 23 195 
1702 37 38 126 162 
1703 65 198 64 266 
1704 299 330 290 345 
1705 267 130 44 45 
1706 264 160 47 48 
1707 180 58 59 212 
1708 165 29 30 96 
1709 59 60 199 232 
1710 115 36 37 167 
1711 19 20 98 234 
1712 97 15 14 132 
1713 233 34 35 131 
1714 69 247 215 68 
1715 314 324 300 352 
1716 181 53 144 54 
1717 102 99 94 353 
1718 320 293 301 348 
1719 145 39 38 110 
1720 24 23 179 79 
1721 202 58 228 57 
1722 48 49 246 147 
1723 183 52 51 150 
1724 146 28 29 76 
1725 105 77 95 348 
1726 18 19 77 214 
1727 213 33 34 111 
1728 13 14 112 78 
1729 327 75 281 347 
1730 169 27 28 93 
1731 135 33 32 230 
1732 13 12 101 128 
1733 94 17 18 237 
1734 295 296 236 224 
1735 275 263 248 344 
1736 184 62 251 61 
1737 182 22 21 81 
1738 12 11 80 133 
1739 99 16 17 216 
1740 32 31 114 235 
1741 56 218 57 201 
1742 148 26 27 82 
1743 42 41 116 250 
1744 175 36 2 143 
1745 65 276 7 208 
1746 174 7 50 276 
1747 174 55 7 208 
1748 177 6 277 46 
1749 176 210 4 51 
1750 61 209 8 278 
1751 210 4 25 106 
1752 244 3 20 109 
1753 40 6 140 177 
1754 5 35 142 245 
1755 4 30 106 176 
1756 140 277 6 45 
1757 242 8 278 70 
1758 242 209 8 60 
1759 15 2 143 108 
1760 142 41 5 279 
1761 5 66 245 279 
1762 211 21 3 109 
1763 3 56 211 244 
1764 68 229 67 270 
1765 305 304 322 350 
1766 296 302 301 353 
1767 243 16 1 107 
1768 11 1 107 141 
1769 175 2 26 108 
1770 1 31 243 141 
1771 212 228 240 354 
1772 282 292 328 354 
1773 9 296 295 224 
1774 313 346 317 351 
1775 313 321 317 346 
1776 333 313 317 351 
1777 317 295 9 296 
1778 340 344 318 315 
1779 318 344 340 263 
1780 352 338 314 126 
1781 352 314 338 323 
1782 274 254 336 283 
1783 336 254 274 249 
1784 336 284 274 283 
1785 274 284 336 249 
1786 353 214 94 348 
1787 353 94 214 237 
1788 337 311 138 118 
1789 337 138 311 332 
1790 247 219 69 215 
1791 247 69 219 268 
1792 193 291 192 204 
1793 192 291 193 289 
1794 82 169 338 93 
1795 82 338 169 148 
1796 345 83 84 335 
1797 345 84 83 79 
1798 275 318 257 260 
1799 257 318 275 298 
1800 349 298 337 319 
1801 349 337 298 262 
1802 348 227 236 296 
1803 348 236 227 214 
1804 93 146 28 169 
1805 93 28 146 76 
1806 214 94 18 237 
1807 214 18 94 77 
1808 353 238 296 339 
1809 353 296 238 227 
1810 311 122 124 120 
1811 124 122 311 310 
1812 288 188 190 286 
1813 190 188 288 191 
1814 314 120 324 119 
1815 314 324 120 311 
1816 118 324 120 119 
1817 118 120 324 311 
1818 354 295 239 226 
1819 354 239 295 292 
1820 296 317 225 9 
1821 225 317 296 321 
$EndElements
