538  1
    1      3   193   194    -1
    2    236    18   185    -1
    3    240   221   110    -1
    4      8   213   257    -1
    5    178    30     4    -1
    6    125    87     7    -1
    7     20   114   148    -1
    8    195     1    22    -1
    9    240    28   221    -1
   10      4     6   159    -1
   11     29     2     5    -1
   12      3   234   193    -1
   13    195   138     1    -1
   14    178     4   159    -1
   15     12     5    93    -1
   16    236   185   115    -1
   17    158   159     6    -1
   18    154    29     5    -1
   19    121    10   206    -1
   20     11     7    87    -1
   21      8   257   139    -1
   22    220   162   256    -1
   23      9   220   256    -1
   24     20   206    10    -1
   25      3   194   269    -1
   26     32    27    26    -1
   27     20   148   151    -1
   28     14   158     6    -1
   29     22   119   127    -1
   30     11    37    32    -1
   31     17   181    36    -1
   32    222     5    12    -1
   33     20    10   114    -1
   34     14    13   158    -1
   35    178    15    30    -1
   36     17   127    16    -1
   37     12    93    26    -1
   38    255    99   151    -1
   39    243   141   238    -1
   40     17    16   181    -1
   41    204   238   141    -1
   42    236   202    18    -1
   43    161   162    19    -1
   44    220    19   162    -1
   45     20   151    99    -1
   46      1   119    22    -1
   47     21   191    23    -1
   48     21    23     8    -1
   49    161    19   154    -1
   50     11    88    37    -1
   51     22   127    17    -1
   52      5     2    93    -1
   53    196    17    36    -1
   54      8    23   213    -1
   55    127   208    16    -1
   56    121    87   125    -1
   57    244   110   221    -1
   58    226   161   154    -1
   59      4   101     6    -1
   60     24   144   142    -1
   61     31    25   116    -1
   62    121   125    10    -1
   63    120   146   215    -1
   64    125   122    10    -1
   65    207    26    27    -1
   66     28   154     5    -1
   67     19    29   154    -1
   68    231    30    15    -1
   69    201    34    31    -1
   70     24   263   144    -1
   71     32    26   165    -1
   72    243    37    33    -1
   73     11    87    88    -1
   74    211   116    25    -1
   75    191   189    23    -1
   76    239    31    34    -1
   77     22    17   196    -1
   78     35   196    36    -1
   79    260   255   151    -1
   80     20    99   206    -1
   81    226    28   240    -1
   82    225    58    43    -1
   83     37    88    33    -1
   84    222    28     5    -1
   85    157   156    92    -1
   86     40    38    39    -1
   87     44   196    35    -1
   88     40    39    41    -1
   89      4    42   101    -1
   90    243   238    37    -1
   91    241   225    43    -1
   92     45    44    35    -1
   93     47    44    45    -1
   94    192    44    47    -1
   95    128   192    47    -1
   96     46   128    47    -1
   97     49   192   128    -1
   98    129   128    46    -1
   99    138   192    49    -1
  100     48   129    46    -1
  101     50   138    49    -1
  102    213    50    49    -1
  103    169    48    46    -1
  104     23    50   213    -1
  105    164    48   169    -1
  106    189    50    23    -1
  107     51    48   164    -1
  108    162   164   169    -1
  109    163    51   164    -1
  110    256   162   169    -1
  111    111    51   163    -1
  112     52    54    53    -1
  113     54    51   111    -1
  114    180    52    53    -1
  115    237    55   131    -1
  116     55   135   131    -1
  117    176    54    52    -1
  118     60   135    55    -1
  119    183    63   186    -1
  120     53    54   111    -1
  121    186    63    34    -1
  122     56   130    81    -1
  123    147    52   180    -1
  124     36   181   155    -1
  125     57   237   131    -1
  126     58    70    43    -1
  127     59   186    34    -1
  128     70    62    43    -1
  129     79    60    55    -1
  130    188   135    60    -1
  131     61   107    58    -1
  132     62   147   180    -1
  133     63   174    69    -1
  134     64    66    96    -1
  135    187    68    65    -1
  136     66    65    96    -1
  137    112   107    61    -1
  138     27    57   131    -1
  139    238   237    57    -1
  140     68    98    65    -1
  141    133   186    59    -1
  142     67   112    61    -1
  143    126   147    62    -1
  144     74    98    68    -1
  145     72    70    58    -1
  146     43    62   180    -1
  147     34    63    69    -1
  148     71    70    72    -1
  149    214    73    79    -1
  150    223    67    61    -1
  151     73   106    79    -1
  152     85    98    74    -1
  153     75    77   179    -1
  154     76    74    68    -1
  155    132    77    75    -1
  156    224    67   223    -1
  157    136   133    59    -1
  158     78   172   126    -1
  159     94   147   126    -1
  160    174   172    78    -1
  161     32    57    27    -1
  162    230    71    72    -1
  163     37   238    57    -1
  164    106    60    79    -1
  165    250   133   136    -1
  166    141    80    64    -1
  167     86    76    68    -1
  168    228    66    80    -1
  169     80    66    64    -1
  170     77   109   179    -1
  171    151   148    81    -1
  172    203   132    75    -1
  173    143    77   132    -1
  174     82    85    74    -1
  175     88    83    33    -1
  176    265   133   250    -1
  177     84   174    78    -1
  178     91    85    82    -1
  179    212   132   203    -1
  180     69   174    84    -1
  181    118   136    59    -1
  182    167   141    64    -1
  183    172    94   126    -1
  184    156    69    84    -1
  185     39   212   203    -1
  186    100    76    86    -1
  187     33   228    80    -1
  188     87    83    88    -1
  189     90   212    39    -1
  190    198    94   172    -1
  191     89    85    91    -1
  192    108   136   118    -1
  193     38    90    39    -1
  194    101    91    82    -1
  195     92   156    84    -1
  196    165    26    93    -1
  197     97    90    38    -1
  198    139    94   198    -1
  199     29   122     2    -1
  200     96    97    38    -1
  201     83   228    33    -1
  202    218    76   100    -1
  203     95    83    87    -1
  204      6   101   209    -1
  205     41    39   203    -1
  206     65    97    96    -1
  207    209   101    82    -1
  208     98    97    65    -1
  209     99   218   100    -1
  210     42    91   101    -1
  211    206    99   100    -1
  212    255   218    99    -1
  213    211    25   102    -1
  214     25   205   102    -1
  215    102   205   145    -1
  216    152   103   114    -1
  217    103   148   114    -1
  218    205   105   145    -1
  219    232    15   193    -1
  220    105   104   145    -1
  221    231    15   232    -1
  222     15   208   193    -1
  223    145   104   253    -1
  224    219   133   265    -1
  225    134    60   106    -1
  226    253   104    73    -1
  227    104   106    73    -1
  228    179   109   117    -1
  229    159   181    16    -1
  230    107    72    58    -1
  231    263   108   109    -1
  232    144   109    77    -1
  233    207    67   224    -1
  234    110    53   111    -1
  235    240   110   111    -1
  236    131   135   113    -1
  237    113   112    67    -1
  238    149   132   212    -1
  239     10   122   114    -1
  240    115    75   179    -1
  241    116   117   118    -1
  242    109   108   117    -1
  243    117   108   118    -1
  244    137   250   136    -1
  245    135   112   113    -1
  246    152    29    19    -1
  247    269   194   119    -1
  248    146    41    18    -1
  249    170   141   167    -1
  250    241    53   110    -1
  251    120   170   167    -1
  252    121   206    95    -1
  253     13   130   155    -1
  254    232   193   234    -1
  255    152   114   122    -1
  256    123    25    31    -1
  257    261    42    30    -1
  258     40    41   146    -1
  259    124   157    92    -1
  260    125     2   122    -1
  261    217    90    97    -1
  262    177    78   126    -1
  263    127   194   208    -1
  264    175   128   129    -1
  265    260   130    13    -1
  266     27   131   113    -1
  267    207   113    67    -1
  268    143   132   149    -1
  269    187    65    66    -1
  270    187    86    68    -1
  271    263   109   144    -1
  272    219   186   133    -1
  273    143   144    77    -1
  274     32    37    57    -1
  275    188    60   134    -1
  276    188   112   135    -1
  277    240   111   163    -1
  278    137   136   108    -1
  279    195   192   138    -1
  280    248    94   139    -1
  281    119   194   127    -1
  282    173   198   172    -1
  283    140   211   115    -1
  284     18    41   185    -1
  285    150    47    45    -1
  286    243    80   141    -1
  287    241   180    53    -1
  288    200   129    48    -1
  289    143   142   144    -1
  290    202   102   145    -1
  291    216   215   146    -1
  292     24   142   231    -1
  293    248   147    94    -1
  294    171    35    36    -1
  295    160    56    81    -1
  296    160   148   103    -1
  297    217    97    98    -1
  298    266   143   149    -1
  299    150    46    47    -1
  300    260   151    81    -1
  301    152   122    29    -1
  302    220   103   152    -1
  303    200    48    51    -1
  304    153   104   105    -1
  305    210    76   218    -1
  306    231   261    30    -1
  307    202   145   253    -1
  308    226   154    28    -1
  309    171   130    56    -1
  310    171    36   155    -1
  311    210    74    76    -1
  312    123   156   157    -1
  313    153   106   104    -1
  314    158   181   159    -1
  315    199   200   176    -1
  316    220   152    19    -1
  317    160    81   148    -1
  318    161   164   162    -1
  319      7    93     2    -1
  320    161   163   164    -1
  321    210    82    74    -1
  322    153   134   106    -1
  323    260    81   130    -1
  324     11    32   165    -1
  325    166    83    95    -1
  326    215    73   214    -1
  327    210   209    82    -1
  328    168    96    38    -1
  329    168   167    64    -1
  330    142   261   231    -1
  331    150   169    46    -1
  332     30    42     4    -1
  333    201    31   116    -1
  334    248    52   147    -1
  335    200    51    54    -1
  336    235    56   160    -1
  337    236   115   211    -1
  338    120   214   170    -1
  339    157   105   205    -1
  340    171   155   130    -1
  341    173    63   183    -1
  342    173   172   174    -1
  343    168    38    40    -1
  344    215   253    73    -1
  345    247   124    92    -1
  346    217    98    85    -1
  347    175    49   128    -1
  348    200    54   176    -1
  349    177    70    71    -1
  350    177   126    62    -1
  351    168    64    96    -1
  352    150   256   169    -1
  353    268    91    42    -1
  354    178   208    15    -1
  355    178   159    16    -1
  356    259    78   177    -1
  357    140   115   179    -1
  358    241    43   180    -1
  359    248   176    52    -1
  360    158   155   181    -1
  361    227   182   189    -1
  362    158    13   155    -1
  363    233   263    24    -1
  364    191   183   219    -1
  365    184    55   237    -1
  366    184   214    79    -1
  367    185    75   115    -1
  368    185    41   203    -1
  369    219   183   186    -1
  370    187    66   228    -1
  371    137   108   263    -1
  372    188   107   112    -1
  373    217    85    89    -1
  374    182   269   119    -1
  375      7   165    93    -1
  376    190   189   191    -1
  377    195    44   192    -1
  378    239   123    31    -1
  379    252   149   212    -1
  380    173   174    63    -1
  381    194   193   208    -1
  382    266   142   143    -1
  383    225    61    58    -1
  384    124   153   105    -1
  385    175   213    49    -1
  386    195    22   196    -1
  387    197   146   120    -1
  388    259    92    84    -1
  389    177    62    70    -1
  390    259   177    71    -1
  391     21   198   173    -1
  392    268    42   261    -1
  393    268    89    91    -1
  394    262   230    72    -1
  395    252    90   217    -1
  396    166   228    83    -1
  397    125     7     2    -1
  398    195   196    44    -1
  399    199   129   200    -1
  400    264   138    50    -1
  401    236   211   102    -1
  402    242    95   206    -1
  403    239    34    69    -1
  404    201   116   118    -1
  405    201    59    34    -1
  406      8   139   198    -1
  407    216    18   202    -1
  408    184    79    55    -1
  409    185   203    75    -1
  410    249   210   218    -1
  411    204   170   184    -1
  412    204   141   170    -1
  413    124   105   157    -1
  414    221   224   223    -1
  415     14     6   209    -1
  416    123   157   205    -1
  417    242   206   100    -1
  418    264   189   182    -1
  419    207    27   113    -1
  420    178    16   208    -1
  421    249   209   210    -1
  422    140   116   211    -1
  423    252   212    90    -1
  424    204   184   237    -1
  425     21   173   183    -1
  426    257   213   175    -1
  427    229   171    56    -1
  428    262   188   134    -1
  429    170   214   184    -1
  430    123   205    25    -1
  431    225   223    61    -1
  432    120   215   214    -1
  433    216   146    18    -1
  434    229    56   235    -1
  435    140   117   116    -1
  436    252   217    89    -1
  437    249   218   255    -1
  438    190   191   219    -1
  439      9   103   220    -1
  440    190   219   265    -1
  441    222   221    28    -1
  442    121    95    87    -1
  443    259    84    78    -1
  444    216   202   253    -1
  445    244   221   223    -1
  446     12   207   224    -1
  447    244   225   241    -1
  448    226   163   161    -1
  449    227   269   182    -1
  450      9   256   235    -1
  451    166   187   228    -1
  452    229    35   171    -1
  453      9   235   160    -1
  454    197    40   146    -1
  455      9   160   103    -1
  456    262    72   107    -1
  457      1   182   119    -1
  458    264     1   138    -1
  459    229    45    35    -1
  460    251   265   250    -1
  461    247   230   124    -1
  462     24   231   232    -1
  463    262   107   188    -1
  464    233   232   234    -1
  465    264    50   189    -1
  466    246   229   235    -1
  467    239   156   123    -1
  468    266   261   142    -1
  469    166    86   187    -1
  470     21     8   198    -1
  471    258   199   176    -1
  472    245   153   124    -1
  473     21   183   191    -1
  474    199   175   129    -1
  475    236   102   202    -1
  476    247    92   259    -1
  477    204   237   238    -1
  478    239    69   156    -1
  479    226   240   163    -1
  480    197   167   168    -1
  481    245   230   262    -1
  482    244   241   110    -1
  483    197   168    40    -1
  484    201   118    59    -1
  485    254   260    13    -1
  486    242   166    95    -1
  487    243    33    80    -1
  488     12    26   207    -1
  489    233    24   232    -1
  490    244   223   225    -1
  491    245   124   230    -1
  492    242   100    86    -1
  493    246    45   229    -1
  494    247    71   230    -1
  495    140   179   117    -1
  496    258   248   139    -1
  497    249    14   209    -1
  498    251   250     3    -1
  499    227   189   190    -1
  500    227   251   269    -1
  501    267   149   252    -1
  502    246   235   256    -1
  503    258   139   257    -1
  504    216   253   215    -1
  505    254   249   255    -1
  506    199   257   175    -1
  507    246   256   150    -1
  508    254    14   249    -1
  509    246   150    45    -1
  510    258   257   199    -1
  511    197   120   167    -1
  512    247   259    71    -1
  513    254   255   260    -1
  514    254    13    14    -1
  515    266   268   261    -1
  516    245   134   153    -1
  517    245   262   134    -1
  518    267    89   268    -1
  519    222   224   221    -1
  520    233   137   263    -1
  521    258   176   248    -1
  522    264   182     1    -1
  523    267   252    89    -1
  524     11   165     7    -1
  525    242    86   166    -1
  526    227   190   265    -1
  527    222    12   224    -1
  528    267   266   149    -1
  529    267   268   266    -1
  530    251     3   269    -1
  531    227   265   251    -1
  532      3   270   271    -1
  533    234     3   271    -1
  534    250   137   270    -1
  535      3   250   270    -1
  536    233   234   271    -1
  537    270   137   271    -1
  538    137   233   271    -1
# Generated by E:\panyingyun\smartmm\vendor\tetgen\build\tetgen.exe -pq1 .4a0.01 sphere.stl 
