1441  4  0
    1     322   246   355   365
    2     259   332   247   310
    3     340   111    54   301
    4      75   132    77   328
    5     318   148   337   374
    6     305   108   306   379
    7     258   257   199   382
    8      39   297   299   333
    9     283   273   284   387
   10     167    64   168   299
   11     135   113   131   307
   12      79    60    55   307
   13     320   317   366   375
   14     194   347   356   119
   15     149   267   266   308
   16     306   379   368   283
   17      34    63    69   284
   18     154     5    28   303
   19     293   309   158     6
   20     109   263   108   306
   21     308   292   319   376
   22      96    66    65   300
   23     294   318   338   339
   24     241   301   110   358
   25     280   278   369   380
   26     260   254   255   316
   27     327   315   367   378
   28     201   116   118   368
   29     194   127   119   356
   30     309   276   341   356
   31      99   151   316   337
   32     273   287   310   387
   33      36    17   341   377
   34     114   122   152   338
   35      15   178   208   314
   36     324   315   347   350
   37     274   275   319   361
   38     158   181   341   342
   39     151   374   337    81
   40     189   378    23   327
   41     228    66   372   375
   42     258   290   248   139
   43      34   186   284   368
   44      91   275   319   308
   45      28   240   226   311
   46     302   369   280   281
   47      67   224   207   295
   48     324   294   340   352
   49     249   254   293   316
   50     181    16   159   341
   51     259    92    84   310
   52     251   265   371   383
   53     133   250   371   379
   54      28   302   311   303
   55     239    69   310   368
   56     170   141   286   312
   57     115   179   285   328
   58     220   256     9   365
   59     132   212   149   313
   60     220    19   162   344
   61      59   201   118   368
   62     281   295   302   335
   63     309   276   319   342
   64      36    17   181   341
   65     102   364   211    25
   66     141   298   312   325
   67     353   145   359   282
   68      75   203   132   328
   69     280   281   295   302
   70     318   317   338   339
   71      70    58    72   332
   72      54    53   291   301
   73     245   346   381   262
   74     303   294   338   339
   75     276   292   309   319
   76     154   303   311   344
   77      77   132   313   328
   78      66    80   228   372
   79      59    34   201   368
   80     296   278   297   330
   81     324   288   336   334
   82      97    90   299   333
   83     324   321   334   355
   84      40   197   168   299
   85      54   176   200   291
   86     280   278   298   312
   87     285   179   306   328
   88     265   227   354   383
   89      62   332   177   287
   90     322   318   160   365
   91      25   282   205   102
   92     192   355    44    47
   93     175   128   129   334
   94     131   237   312   351
   95     331   339   280   323
   96     173   198   172   304
   97     280   307   312   351
   98      81   260   151   316
   99     133   354   368   379
  100     274   313   328   330
  101     251   345     3   269
  102      13   293   316   342
  103     192   138   195   321
  104      40    38    39   299
  105     340   162   344   365
  106     200   288   336   340
  107     174    84    69   310
  108     279   294   322   324
  109     274   300   361   380
  110     146   286   197   297
  111      25   282   102   364
  112      84   156    69   310
  113     281   295   349   362
  114     105   145   282   359
  115     334   288   336   382
  116     195    22   277   321
  117     161    19   154   344
  118     315   277   324   347
  119     276   279   319   342
  120      70    43    58   332
  121     214   120   215   286
  122     300   274   361   275
  123      66   298   372   375
  124     183   327   354   191
  125     278   362   369   385
  126     279   272   294   324
  127     332   287   358   384
  128     244   358   110   335
  129      90   275   217   333
  130     177    70    71   332
  131     193    15   208   314
  132     259    78   177   310
  133     151   374   316   337
  134     307   329   373   386
  135     106   359   153   386
  136     287   301   384   352
  137     286   278   298   380
  138     176   200   291   382
  139     284   133   354   368
  140     145   205   282   102
  141     116   285   306   364
  142     180    62   287   358
  143     306   368   116   364
  144     336   169   340   365
  145     292   309   319   376
  146      93   323   165   343
  147      15   193   232   314
  148     321    44   355   377
  149     186   133   284   368
  150     324   322   355   365
  151     133   265   354   371
  152      74    68   289   300
  153     178    15   309   314
  154     379   306   368   118
  155     228   320    33    83
  156      32    26   165   343
  157     102   236   285   296
  158      46   355   128    47
  159     139   198     8   290
  160      17   196   277   377
  161      48   164    51   340
  162     161   340   344   311
  163     135   112   113   295
  164     322   279   324   342
  165      48   200   129   336
  166     169    46   150   336
  167     277   276   347   356
  168      72    58   107   332
  169      46    48   129   336
  170     275    91   319   289
  171      91   268   376    42
  172     160   148   318   374
  173     305   292   330   360
  174      38    90    39   333
  175     295   280   302   343
  176     162   164   169   340
  177     174   172    78   304
  178     207   295   302   343
  179      22   127   277   347
  180     328   330   297   274
  181       8    23   213   348
  182     242   357   166   366
  183     303    12   302   343
  184     125     7     2   338
  185     239    34    69   368
  186      57   237   131   351
  187      10   125   122   338
  188     203   212   132   313
  189     357   361   375   317
  190     370   331   323   320
  191     323   303   339   343
  192     263   233   305   360
  193     234     3   271   345
  194      19    29   154   344
  195     305   283   306   330
  196      31    34   239   368
  197     316    13   342   374
  198     165   323   331   343
  199      49   192   128   334
  200      83   320   366   375
  201     150   336   365   169
  202     313    77   328   360
  203      33   243   325   372
  204      29     2   303   338
  205     305   283   350   371
  206     281   352   369   384
  207      47    44    45   355
  208     290   288   348   382
  209     298   300   361   375
  210     278   280   307   312
  211      92   157   156   310
  212     278   280   298   380
  213     315   288   324   334
  214     298   317   320   375
  215     292   275   274   308
  216     275   308   252   333
  217      63   304   174   284
  218     287   288   301   352
  219     383   190   354   367
  220     185   115   296   328
  221     176   258   199   382
  222     363   317   366   370
  223     294   301   311   340
  224      54   200    51   340
  225     241   301    53   110
  226     100   363   206   326
  227     285   283   306   364
  228     127   277   347   356
  229     269   347   345   119
  230     323   303   338   339
  231     305   283   330   350
  232     279   293   326   361
  233     315   354   367   383
  234      33   320    37    88
  235     223    67    61   349
  236     355   192   128    47
  237     181   159   158   341
  238      68   375   187    86
  239     379    59   118   368
  240      78   174   304   310
  241     275   274   299   300
  242     270   305   371   379
  243     194   119   269   345
  244     273   352   384   387
  245     200    54   291   340
  246       4    30    42   376
  247     117   116   140   285
  248     221   244   110   335
  249     360   143    77   144
  250     174   173   172   304
  251      29   152   338   344
  252       1   119    22   347
  253       2     7   323   338
  254      17   356   341   277
  255     287   172   290   304
  256     318   220   365   344
  257      46    47   150   355
  258      80    33   228   372
  259     317   320   366   370
  260     277   322   342   377
  261     298   280   312   325
  262     253   353   359   373
  263     362   281   369   384
  264     350   345   371   383
  265     257   213   175   348
  266     137   108   305   379
  267     194   193   208   356
  268     166    83    95   366
  269     213   334   175   348
  270      90    38    97   299
  271     233   234   271   305
  272     294   369   272   339
  273     337    10   363    20
  274     247   332   381   310
  275     161   164   162   344
  276      44    45   355   377
  277     334   348   315   288
  278     225   244   335   358
  279     149   308   313   333
  280     194   347   345   356
  281      74    82    85   289
  282      76   210    74   289
  283     278   329   359   373
  284      99   316   326   337
  285     274   292   313   330
  286     143   149   266   313
  287     292   275   308   319
  288     276   309   314   356
  289     293   289   326   361
  290      76    68    86   357
  291     359   329   381   386
  292     101    91   319   376
  293     101    91   289   319
  294      41   185    18   296
  295     317   279   326   361
  296     281   295   335   349
  297     288   273   290   348
  298     292   276   314   350
  299      68   375   357   300
  300       2     5    29   303
  301      38    40   168   299
  302     278   329   362   385
  303     311   154    28   303
  304      30     4   178   309
  305     135   112   295   307
  306     272   294   324   352
  307     203   185   296   328
  308     258   176   248   291
  309      79   307   312   373
  310     180    62   147   287
  311     343   207    12   302
  312     283   285   330   364
  313      64   167   141   298
  314     146    40    41   297
  315     350   277   324   276
  316      32   165   331   343
  317     246   229   235   322
  318     287   288   291   301
  319      92   259   247   310
  320     268   261   308   376
  321     225   335   349   358
  322       5    12   222   302
  323      58   358   349   332
  324     194   347   119   345
  325     278   282   353   359
  326     204   141   312   325
  327     287   288   290   291
  328     178   208   314   356
  329     166   357   375   366
  330      98    74   289   300
  331     171   322    56   229
  332     294   340   344   365
  333      15    30   178   309
  334     120   214   170   286
  335     111   110   301   311
  336     247   332    71   381
  337     288   200   336   382
  338     284   273   327   304
  339     257   139   348   382
  340     128    46   129   336
  341     288   200   291   340
  342     112    67   113   295
  343     155    36   181   341
  344     276   272   292   319
  345     272   339   369   380
  346     277   355   322   377
  347     274   308   313   292
  348     252   275   217    89
  349     314   193   345   356
  350     330   272   350   387
  351     332   259   247    71
  352     331    57    32   351
  353     326   317   357   363
  354     321    22     1   195
  355      29    19   152   344
  356     280   331   343   351
  357     127   194   208   356
  358     311   294   340   344
  359     372    64    66    80
  360     263   144    24   360
  361      52   147   248   291
  362      90    38   299   333
  363      55    60   135   307
  364     276   272   279   324
  365      81   260   316   374
  366     161   340   164   344
  367     147   287   290   291
  368      44   192   195   321
  369     313   274   328   333
  370     113    27   131   351
  371     248   147   290   291
  372     270   137   271   305
  373     316   279   326   337
  374     362   278   280   307
  375     130    13   316   374
  376      16   309   341   356
  377     282   310   329   385
  378      83    95   366   370
  379     188   307   112   135
  380       6     4   101   309
  381      90   275   333    97
  382     174    78    84   310
  383     289   275   300   361
  384     292   305   314   360
  385     353   202    18   216
  386     281   294   302   339
  387     221   223   244   335
  388     158   159   309   341
  389     288   334   348   382
  390      34    31   201   368
  391     172   126    78   287
  392     300    66   187   375
  393      18    41   296   297
  394     260   130   316   374
  395      22   127    17   277
  396     110    53   111   301
  397     173   284    63   183
  398      27   343   351   207
  399     286   197   297   299
  400     169   162   340   365
  401     384   329   385   362
  402     255    99   316   326
  403      41   203   185   296
  404     302   280   339   343
  405     141   167   286   298
  406       9   256   235   365
  407     198     8   290   304
  408     263   137   108   305
  409     207   295   343   351
  410      78   259    84   310
  411     281   332   349   358
  412      76   326   210   289
  413     285   296   328   330
  414     246   150   355   365
  415     295   131   307   351
  416     157   123   156   310
  417     100   363   326   357
  418     190   327   354   367
  419     213   334   348   378
  420     355   277   322   324
  421     279   272   319   361
  422     142   143   313   360
  423      13   260   130   316
  424     274   308   275   313
  425     278   362   280   369
  426     204   237   238   312
  427      99    20   151   337
  428     369   272   380   385
  429     223   225   244   335
  430     277   315   321   347
  431     274   272   330   380
  432     191   190   327   354
  433     293   279   316   342
  434     300    66   298   299
  435     126    62   177   287
  436     322   171    56   374
  437     326    76   210   218
  438     110   301   335   358
  439      49   138   321   378
  440     278   282   329   385
  441     292   305   330   350
  442     189   191   190   327
  443      45   322   377   229
  444     293   249   316   326
  445      21   173   183   304
  446     109   263   306   360
  447     273   287   290   304
  448     200   288   291   382
  449     257     8   213   348
  450     357   363   366   206
  451     309   292   314   376
  452     264    50   367   378
  453     305   292   314   350
  454     329   332   346   362
  455      71    70    72   332
  456     200   382   129   336
  457     309   293   158   342
  458     169   340    48   336
  459     275   274   313   333
  460     262   188   134   346
  461     143   132   149   313
  462     328   360   330   313
  463     283   305   306   379
  464     315   273   327   354
  465     159    16   309   341
  466     354   133   371   379
  467     270   137   305   379
  468     141   298   325   372
  469      27   343   207    26
  470      61    58   225   349
  471      23    50   213   378
  472     220   318   152   344
  473     129   334   336   382
  474      75   179   115   328
  475      19   161   162   344
  476     301   288   340   352
  477     119   127    22   347
  478     352   385   369   384
  479     251   345   383     3
  480     317   279   318   337
  481     354   350   371   383
  482     232    24   314   360
  483     238   204   312   325
  484     175   257   348   382
  485      77   109   306   360
  486     295    67   335   349
  487     346   332   349   362
  488      30   314   376   309
  489     307   278   329   362
  490     340    48   200    51
  491     223   225   335   349
  492     155    13   130   342
  493      26    12    93   343
  494     370    11   331    88
  495     225   358    58    43
  496      24   305   232   233
  497     257   258   139   382
  498     234   305   314   345
  499      19   220   152   344
  500      46   150   336   355
  501     283   330   350   387
  502      45   322   355   377
  503     281   301   352   384
  504      84    92   156   310
  505      54    52   176   291
  506     347   383   315   367
  507      28     5   222   303
  508     352   385   272   369
  509      17   127    16   341
  510     138   264   367   378
  511       1   182   347   367
  512      27   113   295   351
  513     298   280   320   339
  514     288   290   291   382
  515      16   178   309   356
  516      48   340   200   336
  517     272   350   292   330
  518     148   114   318   337
  519     321   315   334   378
  520     271   305   345   371
  521     101   293   309   319
  522     206   100   242   357
  523     257   139     8   348
  524     302   369   281   339
  525     206    95   363   366
  526     134   262   346   386
  527     192   355   128   334
  528     302   294   303   339
  529     119   127   347   356
  530     327    23   348   378
  531     282   278   329   359
  532     309   101   319   376
  533     155   181   158   342
  534     100   326    76   357
  535     292   275   319   274
  536     329   359   373   386
  537      13   155   158   342
  538     305   314   345   350
  539     156   239    69   310
  540     189   378   327   367
  541     163   340    51   164
  542     292   276   309   314
  543     294   281   301   352
  544     151    20   148   337
  545     102   282   285   364
  546     165    26    93   343
  547     297   380   330   278
  548     340   169    48   164
  549      12     5    93   343
  550      50    49   213   378
  551      24   144   142   360
  552     286   168   299   167
  553     182   119   347   383
  554     234   314   193   345
  555      58    61   107   349
  556     375    68   357    86
  557     129   175   334   382
  558     151   374    81   316
  559     272   330   380   385
  560     117   179   109   306
  561      59   133   368   379
  562     185   203    75   328
  563      91   308   319   376
  564     193     3   234   345
  565      61   112   107   349
  566     330   328   297   296
  567     122    29   152   338
  568      30   314   309    15
  569     234   271   305   345
  570     223    61   225   349
  571     229    56   235   322
  572      27    57   131   351
  573     226   344   161   154
  574      36   342   155   377
  575      99    20   337   363
  576       4     6   159   309
  577     275    98   289   300
  578     263   233   137   305
  579     314    30   231    15
  580     368   306   116   118
  581     301   302   311   335
  582      11   165   323   331
  583      52    54    53   291
  584     233   232   234   305
  585      66   300   298   375
  586     297   274   299   333
  587      39   203   297   333
  588     300    96    97    65
  589     273   315   324   350
  590      67   223   224   335
  591     297   203   328   333
  592     280   295   307   351
  593     308   149   252   333
  594     138     1   195   321
  595     249   218   255   326
  596     308   275   252    89
  597     257   175   199   382
  598      48    46   169   336
  599     172   198   290   304
  600     331   325    57   351
  601      37   320   325   331
  602     310   287   384   387
  603     250   270   371   379
  604     159     6   158   309
  605     254    13   293   316
  606     117   109   108   306
  607     273   284   327   354
  608      22   277   321   347
  609     140   211   115   285
  610     206    99   326   363
  611      21   327   183   191
  612      89   267   252   308
  613     132   203   313   328
  614     179    77   306   328
  615      21     8   304   327
  616     329   310   384   385
  617     148   103   160   318
  618     210   326   293   289
  619     350   277   347   324
  620     142   231   292   376
  621     172   198    94   290
  622     125   338   363   370
  623     280   312   325   351
  624     121   366   370   363
  625     326    76   357   289
  626      60   134   346   386
  627     125     2   122   338
  628     346   295   307   362
  629     347   345   350   383
  630      34    59   186   368
  631     277   322   324   342
  632     322    45   246   229
  633     104    73   253   359
  634     335    28   222   302
  635     294   279   318   339
  636     273   315   327   348
  637     273   287   304   310
  638     131    55   307   312
  639      36   342   341   155
  640      80    64   141   372
  641       8    21    23   327
  642     286   278   353   373
  643     146    41    18   297
  644     288   291   301   340
  645     143   266   142   313
  646     355    46   128   336
  647     143   360    77   313
  648      28   335   222   221
  649     151   260   255   316
  650     160   322   365   235
  651     179    77   109   306
  652     272   279   339   361
  653     232    24   231   314
  654     137   233   271   305
  655     162   220   344   365
  656      75    77   179   328
  657     188   262   107   346
  658     259   332   177    71
  659     253    73   353   373
  660     279   294   318   322
  661     238   243   141   325
  662     327    21   183   304
  663     237   204   184   312
  664      99   218   100   326
  665     291   287   301   358
  666     272   276   279   319
  667      93   303     5     2
  668     320    33    37   325
  669      28   221   240   311
  670     227   269   182   383
  671     114   152   318   338
  672      60   188   135   307
  673     273   288   315   348
  674     338   337   318   114
  675     223   221   224   335
  676     204   141   170   312
  677     290   273   304   348
  678     256   169   150   365
  679     350   272   292   276
  680     279   317   339   361
  681     324   334   336   355
  682     175    49   128   334
  683     179   140   285   306
  684     287   273   352   384
  685     179   140   115   285
  686      38   168    96   299
  687     362   280   369   295
  688     296    18   297   353
  689     302    28   311   335
  690     182   347   367   383
  691     383   190   367   227
  692     284   273   304   310
  693      17   356   127   341
  694      62   126   147   287
  695     293   309   319   342
  696     100   363   357   206
  697      91    82   101   289
  698     296   278   330   353
  699     303    12   343     5
  700      78   172   287   304
  701     342   171   322   374
  702     326   100    76   218
  703     347   276   350   356
  704     310   329   332   381
  705     385   387   352   272
  706     359   106   153   104
  707     243    37    33   325
  708      44   195   196   321
  709     117   116   285   306
  710     224   207   295   302
  711     273   283   350   387
  712     289   293   319   361
  713      80   243    33   372
  714     171   322   229   377
  715     198   173    21   304
  716      67   224   295   335
  717     114   103   148   318
  718       6   101   293   309
  719     202   353    18   296
  720     104   373    73   359
  721     183   186   219   284
  722     212   149   313   333
  723     256   162   169   365
  724     140   116   211   285
  725     139   290   348   382
  726      63   304   173   174
  727      30   314   231   376
  728     185    75   115   328
  729      68    76   289   357
  730      20   114   148   337
  731      63    34   186   284
  732     159    16   178   309
  733     111   340   163   311
  734      94   198   139   290
  735     292   142   308   313
  736      42    30   261   376
  737     161   226   163   311
  738      11   370     7    87
  739     285   282   296   330
  740     188    60   134   346
  741     245   346   262   386
  742     291    54   301   340
  743     176    52   248   291
  744      60   188   307   346
  745     289   300   357   361
  746     278   286   312   373
  747     206    99   100   326
  748     239   310   364   368
  749     227   182   367   383
  750       8   290   304   348
  751     303   294   311   344
  752     140   117   285   306
  753     117   140   179   306
  754      96   300    97   299
  755     330   282   385   387
  756     363   357   366   317
  757     125   323   338   370
  758     350   277   276   347
  759     170   214   184   286
  760     277   276   341   342
  761     346   295   112   307
  762     190   189   327   367
  763      38    96    97   299
  764     298   320   372   375
  765     177    78   287   310
  766     286   168   167   197
  767     286   141   298   312
  768     222     5   302   303
  769     301   281   302   335
  770     116   211   285   364
  771     276   272   324   350
  772     208   193   314   356
  773      97    98   217   275
  774     251   345   269   383
  775     197    40   297   299
  776     326    99   337   363
  777     290   291   258   248
  778     294   318   322   365
  779     279   276   324   342
  780      53    54   111   301
  781      17   277   341   377
  782     123   282   157   205
  783     281   294   301   302
  784     327   315   354   367
  785     276   309   341   342
  786     121   366    95   370
  787     100    76    86   357
  788     203   313   328   333
  789     315   350   354   383
  790      98    85   275   289
  791      15   232   231   314
  792     265   354   371   383
  793      16   127   208   356
  794      97   275   299   300
  795     258   176   291   382
  796     317   338   339   370
  797     280   325   331   351
  798     332    62   177    70
  799     353   278   359   373
  800     281   280   295   369
  801     120   167   197   286
  802     294   322   324   365
  803     383   347   315   350
  804      91    89   275   308
  805     294   301   340   352
  806     271   270   305   371
  807     113   207    27   295
  808     193   194   345   356
  809     323    93   165     7
  810     185   236    18   296
  811     369   362   384   385
  812     364   102   211   285
  813     293   279   319   361
  814     284   283   310   368
  815     226   344   311   161
  816     303    12     5   302
  817     207    27   295   351
  818     196   195   277   321
  819     288   273   324   352
  820     122     2    29   338
  821     203   296   297   328
  822     237   325    57   238
  823      79    60   307   373
  824     307   329   346   362
  825     383   190   227   354
  826     314   345   350   356
  827     206   242    95   366
  828     279   293   319   342
  829     288   273   315   324
  830     320   228   372   375
  831     175   348   334   382
  832      67   349   112    61
  833     189   378   367    50
  834     279   318   337   374
  835     282   102   285   296
  836      58   107   332   349
  837     339   272   361   380
  838     284   327   183   304
  839     107    72   332   346
  840     345     3   371   383
  841     331   339   320   280
  842     274   272   292   330
  843     362   280   295   307
  844     161   340   163   164
  845      28   222   302   303
  846     211   236   115   285
  847     387   282   364   330
  848     237   325   312    57
  849     332   230   262    72
  850     278   286   297   380
  851       9   318   365   160
  852      52   180   147   291
  853      25   282   364   205
  854     308   142   376   261
  855     279   316   342   374
  856     249   255   316   326
  857     276   277   341   356
  858     273   287   288   290
  859      74    98    68   300
  860     274   275   299   333
  861      98    74    85   289
  862     285   282   330   364
  863     243   141   325   372
  864      23     8   327   348
  865     283   306   364   368
  866     203    41    39   297
  867     296   278   353   297
  868     283   284   354   368
  869     112   188   107   346
  870      63   174    69   284
  871      68   375   300   187
  872     219   183   284   354
  873     345   347   350   356
  874     132   143    77   313
  875     240   110   311   335
  876     166    83   366   375
  877       3   194   269   345
  878     168    64    96   299
  879     286   146   197   120
  880     116   117   118   306
  881     279   317   326   337
  882     133   186   284   354
  883     317   298   339   361
  884       3   271   345   371
  885       8   139   290   348
  886     131   113   295   307
  887      64    66    96   299
  888     183    63   186   284
  889     309   158   341   342
  890     275   289   319   361
  891     380   286   299   298
  892     210    82    74   289
  893      69    34   284   368
  894      14    13   158   293
  895      98    65    68   300
  896      21   191    23   327
  897     201    31   364   368
  898     212   203    39   333
  899      77   306   328   360
  900      13   254   260   316
  901      14     6   209   293
  902     194     3   193   345
  903     283   354   273   350
  904      37   320   331    88
  905     196    44   277   377
  906     107   112   346   349
  907     316   279   337   374
  908     111   340    54    51
  909     181    17    16   341
  910     295   280   343   351
  911     154    29   303   344
  912      11    32   165   331
  913     181   155   341   342
  914     280   298   320   325
  915      68   289   300   357
  916     308   275   313   333
  917     204   170   184   312
  918      88    83    33   320
  919     286   380   299   297
  920     210   209   289   293
  921     184   170   286   312
  922      98    85   217   275
  923     174   284   304   310
  924     301   281   335   358
  925     127    16   341   356
  926     209     6   101   293
  927     281   294   339   369
  928     259   332   310   177
  929     329   346   381   386
  930      29     5   154   303
  931     266   149   308   313
  932      90   212    39   333
  933     167   120   170   286
  934     361   357   375   300
  935      82    91    85   289
  936      78   126   177   287
  937     262   332   346   381
  938     326   289   357   361
  939     279   293   316   326
  940     232   234   305   314
  941      66    96   299   300
  942      91    89    85   275
  943      32   343    27    26
  944     102   202   236   296
  945     292   313   330   360
  946     102   236   211   285
  947     209   101   289   293
  948     315   277   321   324
  949      83   228   320   375
  950     303     2   323   338
  951     254    14   249   293
  952     306   305   330   360
  953      13   158   293   342
  954     152   318   338   344
  955     302   294   311   303
  956     277   321   355   377
  957     252    90   217   333
  958     287    78   304   310
  959      97    98   275   300
  960      89   268   267   308
  961     115   285   296   328
  962     266   268   261   308
  963     282   296   330   353
  964     117   108   118   306
  965     281   295   362   369
  966     331    57    37    32
  967      37    32    11   331
  968     149   308   252   267
  969     315   321   347   367
  970     282   310   385   387
  971     113   135   295   307
  972     340   111   163    51
  973     141   167   170   286
  974     280   323   339   343
  975     338   317   363   370
  976      55   135   131   307
  977      82   209   101   289
  978     282   278   330   385
  979     149   212   252   333
  980     317   298   361   375
  981      81   151   148   337
  982      93   303   343     5
  983     370    11     7   323
  984      76    74    68   289
  985     278   307   329   373
  986     314   234   193   232
  987     325   331    57    37
  988     236   185   115   296
  989     202   102   282   296
  990     288   324   340   352
  991     287   177   310   332
  992      92   157   310   381
  993     322   279   342   374
  994      10   337   338   114
  995     128   129   334   336
  996     315   321   367   378
  997     227   251   269   383
  998     288   324   336   340
  999     320   317   339   370
 1000     276   277   324   342
 1001     242   100    86   357
 1002     278   369   380   385
 1003     295   224   302   335
 1004     114    10   122   338
 1005     387   385   352   384
 1006     320    33   325   372
 1007     335   281   349   358
 1008      65   187    68   300
 1009     358   244   110   241
 1010      99   151   255   316
 1011     312    57   325   351
 1012       6    14   158   293
 1013     317   357   366   375
 1014     382   200   129   199
 1015      88    37    11   331
 1016     282   202   296   353
 1017     236   115   285   296
 1018     332   107   346   349
 1019     191   189    23   327
 1020      14   209   249   293
 1021     145   105   104   359
 1022     306   285   328   330
 1023     277    44   321   377
 1024     173   284   183   304
 1025     171   342   322   377
 1026     303   302   339   343
 1027     354   283   368   379
 1028     108   263   305   306
 1029     212    90   252   333
 1030     305   232   314   360
 1031     327   284   183   354
 1032      69   284   310   368
 1033      41   203   296   297
 1034      10   125   338   363
 1035     254   249   255   316
 1036     308   142   261   266
 1037      90   275    97   217
 1038     101   289   293   319
 1039     268    91   376   308
 1040      12   224   222   302
 1041     343    32    27   351
 1042      40    39   297   299
 1043     307   131   312   351
 1044     338   323   339   370
 1045     336   365   324   355
 1046     203   212   313   333
 1047     167   286   298   299
 1048      67   223   335   349
 1049     105   153   104   359
 1050     278   282   330   353
 1051     303    29   338   344
 1052      13   130   342   374
 1053     147    94   248   290
 1054     242   206   357   366
 1055      88    83   320   370
 1056      66    64   298   299
 1057     218    99   255   326
 1058     221   240   311   335
 1059     192   355   334   321
 1060     307   188   112   346
 1061     349    67   112   295
 1062     365   336   324   340
 1063      36   342   377   341
 1064     294   303   338   344
 1065     337    10   338   363
 1066     196    22    17   277
 1067     323   303    93     2
 1068      23   213   348   378
 1069     111   340   311   301
 1070     196   195    22   277
 1071      85    91   275   289
 1072     354   283   273   284
 1073     336   150   365   355
 1074     294   324   340   365
 1075     321   138   367   378
 1076     320   280   325   331
 1077      22   321     1   347
 1078     332   281   349   362
 1079     237    57   312   351
 1080     110   301   311   335
 1081     317   298   320   339
 1082     172   287    94   126
 1083     157   123   310   364
 1084     192    49   321   334
 1085       4   101   309   376
 1086     163   240   111   311
 1087     353   145   253   359
 1088      32    57    27   351
 1089      94   147   287   290
 1090     249   326   210   218
 1091     287   172    94   290
 1092     279   317   318   339
 1093     369   294   272   352
 1094     273   315   350   354
 1095     381   282   157   310
 1096     303   323    93   343
 1097     142   266   308   313
 1098     226   240   163   311
 1099     268    89    91   308
 1100     340   161   163   311
 1101     237   325   238   312
 1102     318     9   220   103
 1103     287   273   288   352
 1104     269   347   383   345
 1105      38    39   299   333
 1106     307   278   312   373
 1107     162   164   340   344
 1108     318   294   338   344
 1109     236   202    18   296
 1110     209   210   249   293
 1111     318   220   152   103
 1112     116   201   364   368
 1113      79    55   184   312
 1114     224    12   207   302
 1115     320   228    33   372
 1116     310   283   364   368
 1117     315   327   348   378
 1118      57    37   238   325
 1119     283   354   371   379
 1120     231   142   292   360
 1121     269   347   119   383
 1122     145   282   202   102
 1123     278   286   298   312
 1124     338   317   337   363
 1125       3   251   371   383
 1126      64   167   298   299
 1127     318   294   344   365
 1128     358   225    58   349
 1129     147   126    94   287
 1130     247    92   310   381
 1131     246   256   150   365
 1132     148    81   337   374
 1133     104   373   106    73
 1134     321     1   367   138
 1135      11   370   331   323
 1136      37   243   238   325
 1137     282   157   310   364
 1138     317   326   357   361
 1139      47    45   150   355
 1140     240   110   111   311
 1141     291   290   258   382
 1142     146   197    40   297
 1143      64   372    66   298
 1144     174    69   284   310
 1145     277   321   324   355
 1146     226   344   154   311
 1147     331    32   343   351
 1148      49   138   192   321
 1149     276   314   350   356
 1150     204   238   141   325
 1151     256   246   235   365
 1152     326   249   210   293
 1153     287    62   332   358
 1154     267   268   266   308
 1155      50   138    49   378
 1156      41    40    39   297
 1157     323   280   331   343
 1158     186   219   284   354
 1159     262    72   107   346
 1160     235   246   322   365
 1161     207   343    12    26
 1162      44   196   277   321
 1163      98    97    65   300
 1164      82   210   209   289
 1165     284   273   310   387
 1166     221   110   240   335
 1167      28   221   311   335
 1168     355   192    44   321
 1169     294   302   311   301
 1170     317   326   337   363
 1171     283   285   306   330
 1172     350   283   354   371
 1173     103   114   152   318
 1174     231   292   314   360
 1175     237    55   131   312
 1176     178    16   208   356
 1177     274   297   328   333
 1178     105   282   205   157
 1179     309   178   314   356
 1180     119     1   182   347
 1181     252   275   333   217
 1182     378   189    23    50
 1183     154   311    28   226
 1184       8   304   327   348
 1185      67   207   113   295
 1186      55   237   184   312
 1187     310   287   332   384
 1188       4   159   178   309
 1189     275    97   299   333
 1190     242   166    95   366
 1191     345   305   350   371
 1192      14   254    13   293
 1193     272   274   292   319
 1194     198    21     8   304
 1195     113   131   295   351
 1196     298   339   361   380
 1197     318   279   322   374
 1198     248    94   139   290
 1199     334   128   336   355
 1200      58   358   332    43
 1201     269   119   182   383
 1202     222   335   302   224
 1203     304   273   327   348
 1204     272   279   294   339
 1205       7    11   165   323
 1206      73   253   359   373
 1207       7    93     2   323
 1208     341   277   342   377
 1209      55    79   307   312
 1210     286   278   297   353
 1211     321   315   324   334
 1212     286   168   197   299
 1213      85    89   217   275
 1214      18   146   297   353
 1215     146   286   297   353
 1216     216   202   253   353
 1217     215   216   253   353
 1218      24   231   314   360
 1219     263   305   306   360
 1220     292   142   313   360
 1221      73   215   253   353
 1222     146    18   216   353
 1223     215   146   216   353
 1224     173   284   304    63
 1225     332   281   362   384
 1226     190   265   227   354
 1227     219   265   190   354
 1228     133   265   219   354
 1229     243    80   141   372
 1230     141    64   298   372
 1231     191   219   190   354
 1232     186   133   219   354
 1233     191   183   219   354
 1234      31   239   364   368
 1235     142   308   376   292
 1236      45   246   150   355
 1237      49   321   334   378
 1238      45   322   246   355
 1239      49   334   213   378
 1240     287   291   180   358
 1241     291   287   180   147
 1242     346   295   349   112
 1243      53   291   301   358
 1244      70    43   332   358
 1245      62    70   332   358
 1246      17   356   277   127
 1247     291    53   180   358
 1248      43   241   225   358
 1249     241    43   180   358
 1250     241   180    53   358
 1251     241   301   358    53
 1252     225   241   244   358
 1253      43    62   180   358
 1254      43    70    62   358
 1255      53   291   180    52
 1256     145   104   253   359
 1257     145   105   282   205
 1258     145   353   253   202
 1259     353   145   282   202
 1260     233   263    24   360
 1261     231    24   142   360
 1262     144   143   142   360
 1263      24   305   233   360
 1264     144   263   109   360
 1265     360   328   330   306
 1266      77   144   109   360
 1267     320    83   366   370
 1268     323   320   339   370
 1269     370   331   320    88
 1270     384   329   362   332
 1271     310   329   384   332
 1272     295   346   349   362
 1273     286   215   146   120
 1274     361   274   272   319
 1275     301   281   358   384
 1276     245   153   381   386
 1277      20   206    10   363
 1278     206   121    10   363
 1279     337    10    20   114
 1280     206    20    99   363
 1281     121   206    95   363
 1282     121   125    10   363
 1283       1   321   367   347
 1284     294   281   352   369
 1285     330   278   380   385
 1286     332   329   346   381
 1287     156   239   310   364
 1288     123   156   310   364
 1289     116    31    25   364
 1290      31   116   201   364
 1291      31   123    25   364
 1292     211   116    25   364
 1293     215   286   146   353
 1294     123   282   205   364
 1295     121   366   363    95
 1296     123   205    25   364
 1297     123    31   239   364
 1298     302   369   339   280
 1299     123   282   364   157
 1300     123   239   156   364
 1301     256   220   162   365
 1302       9   318   220   365
 1303       9   235   160   365
 1304       9   318   160   103
 1305     331   339   323   320
 1306      30     4   309   376
 1307     292   231   314   376
 1308     189   182   264   367
 1309     182     1   264   367
 1310      50   189   264   367
 1311     189   227   182   367
 1312     359   106   373   386
 1313       1   138   264   367
 1314     305   283   371   379
 1315     189   190   227   367
 1316     298   320   325   372
 1317      59   133   186   368
 1318     380   297   330   274
 1319      59   379   118   136
 1320     282   381   105   359
 1321     310   282   329   381
 1322     283   310   364   387
 1323     332   230    71   381
 1324     287   273   384   387
 1325     381   282   105   157
 1326     121   125   363   370
 1327     125   323   370     7
 1328     125   323     7   338
 1329      95    83    87   370
 1330      83    88    87   370
 1331      88    11    87   370
 1332     121    95    87   370
 1333     125   121    87   370
 1334       7   125    87   370
 1335     265   250   251   371
 1336     250     3   251   371
 1337       3   250   270   371
 1338     250   265   133   371
 1339     281   332   358   384
 1340     300   298   361   380
 1341       3   270   271   371
 1342     272   330   385   387
 1343     310   384   385   387
 1344     215   286   353   373
 1345      73   215   353   373
 1346     214   184   286   373
 1347     215   214   286   373
 1348     184    79   312   373
 1349     286   184   312   373
 1350      79    73   106   373
 1351     104   373   359   106
 1352      60    79   106   373
 1353      79   214    73   373
 1354     214    79   184   373
 1355      73   214   215   373
 1356     318   322   160   374
 1357     160    56   322   235
 1358     357   242   166    86
 1359      81    56   130   374
 1360     260    81   130   374
 1361      56    81   160   374
 1362      56   171   130   374
 1363     171   342   130   374
 1364      56   160   322   374
 1365      81   148   160   374
 1366     166   357    86   375
 1367     187    66   228   375
 1368      83   166   228   375
 1369     166   187   228   375
 1370      66   300   187    65
 1371     187   166    86   375
 1372       4    42   101   376
 1373      30   231   261   376
 1374      24   305   360   232
 1375     268    42   261   376
 1376     261   231   142   376
 1377      42    91   101   376
 1378     171   342   377   155
 1379     342   171   130   155
 1380      35    36   171   377
 1381     196    36    35   377
 1382      35   171   229   377
 1383      44   196    35   377
 1384      36   196    17   377
 1385      35   229    45   377
 1386      44    35    45   377
 1387      36   155   171   377
 1388     138    50   264   378
 1389     108   118   306   379
 1390     108   137   136   379
 1391     250   133   136   379
 1392     250   137   270   379
 1393     137   250   136   379
 1394     133    59   136   379
 1395     118   108   136   379
 1396     274   297   299   380
 1397     298   280   339   380
 1398     339   280   369   380
 1399     299   298   300   380
 1400     274   299   300   380
 1401     222   335   224   221
 1402     348   334   315   378
 1403     329   282   359   381
 1404     262   332    72   346
 1405     105   153   359   381
 1406     230   124   247   381
 1407     245   124   230   381
 1408     124    92   247   381
 1409     230   247    71   381
 1410     124   245   153   381
 1411     124   157    92   381
 1412     332   230    72    71
 1413     245   230   262   381
 1414     330   283   364   387
 1415     157   124   105   381
 1416     230   332   262   381
 1417     105   124   153   381
 1418     200   176   199   382
 1419     199   175   129   382
 1420     258   290   139   382
 1421     227   265   251   383
 1422     334    49   213   175
 1423     301   287   384   358
 1424     329   307   346   386
 1425     106    60   373   386
 1426     245   346   386   381
 1427     153   359   381   386
 1428      60   307   373   386
 1429     307    60   346   386
 1430     245   134   153   386
 1431     153   134   106   386
 1432     134    60   106   386
 1433     245   262   134   386
 1434     274   361   272   380
 1435     283   284   310   387
 1436     282   387   364   310
 1437     317   338   337   318
 1438     324   272   352   387
 1439     273   324   352   387
 1440     324   273   350   387
 1441     272   324   350   387
# Generated by E:\panyingyun\smartmm\vendor\tetgen\build\tetgen.exe -pq1 .4a0.01 sphere.stl 
