387  3  0  0
   1    0.37660013881754906  -0.58341860863368922  0.71957978191617711
   2    0.46472317204376801  -1.1382058985065762e-16  -0.88545602565321013
   3    -0.0065311783669302608  -0.2120147832723592  0.97724463435882514
   4    0.62769063317452556  0.44024240427995287  0.64202110128777679
   5    0.28028966513218367  -0.21721493856210136  -0.93501624268541494
   6    0.77748348822535829  0.42964134400871817  0.45926870245566637
   7    0.39106622731009233  0.22876206254767328  -0.89147917788156195
   8    -0.17523305025807784  -0.91614131680333855  0.36052526366829685
   9    0.87909726120969778  -0.35713090601909059  -0.31566678840130136
  10    0.73209820638402967  0.20826201558860286  -0.6485824150192937
  11    0.22661750362050984  0.35122066059399926  -0.90845393643526196
  12    -0.010719366962906601  -0.17128392583783261  -0.98516339351474813
  13    0.94898282088268282  0.2053280752750366  0.23931566428755757
  14    0.87584315391042356  0.4091393843631842  0.25593697253651476
  15    0.34682949097850524  0.20826201559149837  0.91451420822716445
  16    0.66312265824079564  -1.6241284412905264e-16  0.74851074817110075
  17    0.72852518099314945  -0.23502490866201892  0.64343947109833766
  18    -0.72430122924870777  0.6667698559267532  0.1755154937212883
  19    0.61276881553978213  -0.41851074440352776  -0.67034553442294031
  20    0.84949958367928491  0.27436965679283232  -0.45063482861415083
  21    -0.32398692251218547  -0.82396818438046526  0.46487515008854019
  22    0.58656385188052407  -0.43830684870828979  0.68105062516856341
  23    -0.061846927633777117  -0.85122462125429421  0.52114451135241324
  24    -0.0010246993257415585  0.36351406028085148  0.93158814825512959
  25    -0.90580443584464998  0.090756778763707441  0.41386172946117017
  26    6.1230317691118863e-17  -1.4996607218221374e-32  -1
  27    -0.23562679830492089  0.16008469579281503  -0.95856815203379986
  28    0.18291220962628563  -0.46220342550608146  -0.86770451019922323
  29    0.56419633936348657  -0.22216481756057513  -0.79518883574099419
  30    0.43352177545263293  0.4273936799306815  0.79334325015324048
  31    -0.84454535957633314  -0.11675692863163177  0.52260018679157605
  32    -0.027923109014631634  0.28245891581149507  -0.95887291173624867
  33    0.092375708206894627  0.70335025234571003  -0.70481568587716659
  34    -0.73929770156730601  -0.34734929717418683  0.57687726095756031
  35    0.86796114748381348  -0.39583580255918299  0.29992909807304341
  36    0.86995423019439588  -0.2169179966929021  0.44286140052799156
  37    -0.013555485934966265  0.53009334552097076  -0.84783093470069348
  38    -0.18650504086226721  0.98210443880609521  0.026205743842308418
  39    -0.30990996289795181  0.92373219321480726  0.2251103065502604
  40    -0.41239502544427858  0.91093762531117051  0.011089895457507704
  41    -0.52770318093922042  0.82604137920848364  0.1979519958524654
  42    0.46587462575344146  0.61248650592023646  0.63860873243693672
  43    -0.51168652274139659  -0.68528127568321306  -0.51823399699634365
  44    0.73406845869424631  -0.59198169153131275  0.33271786071982851
  45    0.8183246194447138  -0.56026981524914488  0.12822851216228606
  46    0.56547825247573102  -0.82359024283205207  -0.043971102883993689
  47    0.66579821169600695  -0.7300113983174874  0.15425984451225716
  48    0.43693089839024118  -0.86667472746765539  -0.24076192971639443
  49    0.33889653119005536  -0.8625154942012665  0.37578739123351768
  50    0.18354377511404768  -0.81681550334103714  0.5469224041110512
  51    0.27785325840392028  -0.86169662955793336  -0.42458978485453702
  52    -0.1756728635399934  -0.93977843708439435  -0.29318174262199886
  53    -0.12925653827795167  -0.84934056874399999  -0.51177470199104114
  54    0.051629754406425948  -0.92663128245155024  -0.37240949886130387
  55    -0.60738398613176758  0.34100392333834084  -0.71749635375975518
  56    0.98008471525251495  -0.1985654849896219  -0.002387278624868074
  57    -0.23187233497872373  0.39133514790136159  -0.89055714150667165
  58    -0.62288890439421996  -0.48987064183628298  -0.60994767566527908
  59    -0.59033314261772218  -0.2556591906821839  0.765601174859871
  60    -0.76883419683447918  0.18384715950505587  -0.61244934461537626
  61    -0.51976404139253451  -0.3611668851626974  -0.7742117425725179
  62    -0.55648054056707841  -0.77248392294738466  -0.3059378968973791
  63    -0.64664431013457202  -0.57374909419841424  0.50265605843069538
  64    -0.17385080069009773  0.91101834136274162  -0.37392710626550085
  65    0.18112546552711262  0.96967881057002259  -0.16406270163901721
  66    0.066750079207437293  0.92594188533826072  -0.3717203947889165
  67    -0.36886673083143484  -0.21161702640183505  -0.90507213470671766
  68    0.4112129151458494  0.89906667521078576  -0.15027658481172607
  69    -0.81327352930134089  -0.44935121275573231  0.36968859075266791
  70    -0.69255743208785936  -0.59669057333399977  -0.40536966210387854
  71    -0.83695335732528497  -0.47778053820969829  -0.26689854808519425
  72    -0.79364168134072388  -0.39160130496140233  -0.46559778735642182
  73    -0.83452105372744578  0.45429354659603799  -0.31175629008382
  74    0.50999635293890611  0.85766415034062982  0.065695701605968451
  75    -0.50790178533833519  0.6482429043197343  0.56728909160078822
  76    0.61745806324205799  0.77529812343443028  -0.13288476186687997
  77    -0.3670132622330074  0.5607090576687932  0.74223083875116624
  78    -0.7367647422435547  -0.67452686890294478  0.046810444505237921
  79    -0.74602135728153363  0.40719808000121238  -0.52691731621113447
  80    -0.04615514672698437  0.82697951483691934  -0.56033435060747794
  81    0.99270887409805397  -2.4313551894326704e-16  -0.12053668025532363
  82    0.58390077838635368  0.76379858785621957  0.27508471093220549
  83    0.31532446998508473  0.65970609958184989  -0.68217178247354071
  84    -0.85710598453882925  -0.49200887955276656  0.1526322171396173
  85    0.37777163452229973  0.88784150890751978  0.26272808607221371
  86    0.51342468415114384  0.79541705410580443  -0.3220354075904418
  87    0.42400369207413163  0.44776062820849105  -0.78723013721137636
  88    0.20886786691487522  0.53878698828187521  -0.81613895595577124
  89    0.22336543012781188  0.86876513688982804  0.44198984326409113
  90    -0.074833408559681361  0.96844684951344817  0.23771971022785759
  91    0.43838597003343222  0.77127841681142784  0.46146218159097724
  92    -0.94651602416610392  -0.32226000820138945  0.015996971926956458
  93    0.23931566428755738  -5.8613496611153148e-17  -0.97094181742605212
  94    -0.40033924559574657  -0.91512963824269455  0.047604975009168035
  95    0.52851812175938973  0.59177539708394955  -0.6086628577283657
  96    -0.059366556900939955  0.9828978598102619  -0.17431984712629295
  97    0.053213701543597933  0.99784736530310258  0.038326720779183684
  98    0.29025079179619723  0.95562049131022353  0.050437629302807686
  99    0.84307344702751252  0.4579027964751512  -0.28204998120436814
 100    0.69850610170548966  0.64973740472340979  -0.29988419562139013
 101    0.62858387583824959  0.62298513652665199  0.46558761871750087
 102    -0.9140274721399958  0.29440968709386217  0.27906400039894674
 103    0.86604069453866206  -0.2082620155915737  -0.45453322019927983
 104    -0.9421156165248622  0.27833902501392604  -0.18693729497956235
 105    -0.99481449183604864  0.086726679352418096  -0.05312824033870437
 106    -0.87815243474125015  0.24119345945432283  -0.4131271190256946
 107    -0.70141111879555762  -0.26764289552283083  -0.66059800401312085
 108    -0.43955392483968381  0.11172710195445219  0.89124037265312939
 109    -0.41816467196552115  0.34627122593678722  0.83978243921161067
 110    -0.08125246647037801  -0.70825472217129015  -0.7012654883954782
 111    0.099190554464058459  -0.8100097318524655  -0.57796666704007205
 112    -0.57345679767160485  -0.12748287734808059  -0.80925608875514943
 113    -0.41559397268312198  0.024848196728177667  -0.90921076598818285
 114    0.82298386589365635  -2.0156625425333497e-16  -0.56806474673115592
 115    -0.69089619391089763  0.49496587534957548  0.52694518830601711
 116    -0.76721252126727246  0.090827257375511242  0.63492941066575082
 117    -0.60945046432477012  0.22252876171310543  0.7609540602064977
 118    -0.6153739328782214  -0.01694339607655744  0.7880531987520788
 119    0.34913894299076609  -0.39866613235590953  0.84803733019229233
 120    -0.59350922426023478  0.75498175422348257  -0.27883570701695898
 121    0.6058528324968725  0.41014593658611104  -0.68170569607229947
 122    0.66312265824079519  -1.6241284412905251e-16  -0.74851074817110108
 123    -0.94459268045678313  -0.10192631579036619  0.31201874010525726
 124    -0.97756095808667043  -0.14245342884902437  -0.15518245336966105
 125    0.59203351746618649  0.23443704485573635  -0.77106133750559958
 126    -0.5808153285077946  -0.81070856824849113  -0.073519871727745947
 127    0.52194134670496894  -0.22655017082341591  0.8223455786344841
 128    0.46806491390606858  -0.86673757943229635  0.17228234027301886
 129    0.36141639781879292  -0.93216138969669182  -0.021291569843961373
 130    0.99270887409805408  -2.4313551894326709e-16  0.12053668025532226
 131    -0.4326835452292434  0.26083118079862888  -0.86299017654376942
 132    -0.28910513902949503  0.7424411249622952  0.60431729625376263
 133    -0.39470760686080547  -0.36826740396969471  0.84177492494112549
 134    -0.87107677579336718  0.012041995780604439  -0.49099922709822241
 135    -0.61226677700331755  0.11016320894371366  -0.78293898943225038
 136    -0.4299242776051389  -0.12914248026097552  0.89358118563326017
 137    -0.29937986412234724  0.0023607504765184857  0.95413108314071426
 138    0.40936310638185092  -0.72162986082455272  0.55827608859751299
 139    -0.19923840480198085  -0.96808013015164973  0.15206879909280252
 140    -0.7059674650864084  0.31864412155566557  0.63251550339694351
 141    -0.26749798952653653  0.7763808760137062  -0.57068166341617377
 142    0.035127081012896119  0.55351874007092783  0.8320956030227572
 143    -0.13854326680506759  0.63569454681794235  0.75940648296476299
 144    -0.20677183165769622  0.46724797101569926  0.85960731919559263
 145    -0.95467768755051896  0.29323599001548978  0.051021241192559998
 146    -0.6241368852582978  0.78055597258100617  -0.034431411940118901
 147    -0.39032998092269466  -0.90125428414297826  -0.18810428306345534
 148    0.93501624268541472  -2.2900536634393696e-16  -0.35460488704253595
 149    -0.060087157018707635  0.79954367036714269  0.59759472281576165
 150    0.73886247783411763  -0.67102220600342555  -0.061736843935566853
 151    0.94952508306119698  0.23023490409076783  -0.21305869044923237
 152    0.74184234883355993  -0.21484708930468832  -0.63522488749608208
 153    -0.95670923758363691  0.068466472892874733  -0.28287767110845863
 154    0.41154042563942617  -0.42054653275636344  -0.80856359790131593
 155    0.93501624268541483  -2.2900536634393696e-16  0.35460488704253551
 156    -0.92833653478694811  -0.28804241408796089  0.23499541669177548
 157    -0.99118961530035532  -0.1069278627391816  0.078163793989062244
 158    0.87689635917601971  0.20947433022341916  0.43263527392168438
 159    0.73209820638663259  0.2082620155908414  0.64858241501563663
 160    0.95185386235411906  -0.19731180286237435  -0.23461090591177844
 161    0.49109393453773031  -0.59948956811909848  -0.63201187107255219
 162    0.65849088019686031  -0.59273830319432741  -0.4637359859056378
 163    0.32062652473960962  -0.72416455456595419  -0.61056066819251775
 164    0.48970569965685923  -0.74878976727777913  -0.44665670502487181
 165    0.11789368106530156  0.20826201559160779  -0.97094181742604635
 166    0.41743728465298807  0.76104676070197019  -0.49654198352866225
 167    -0.39731230689029812  0.84861307441468092  -0.34928323854140619
 168    -0.29152912395635316  0.94078794835381452  -0.17299943964493536
 169    0.63458619702134145  -0.72959508100279036  -0.25493406270352142
 170    -0.5017478249101478  0.70387206295599536  -0.50280536909226303
 171    0.9537586594889329  -0.20312009044171891  0.22155506834379052
 172    -0.57669226602625789  -0.79965527830573457  0.16726465909832211
 173    -0.53640307957825983  -0.75278605806995524  0.38155587663467722
 174    -0.71644109516390198  -0.63931845613624283  0.27925627800269703
 175    0.25163638033455049  -0.94906915353507348  0.18959660835664879
 176    -0.00025233600632564832  -0.9878668062288698  -0.15530328225028775
 177    -0.72904753374431797  -0.66110815192222117  -0.1772729674916991
 178    0.55918055306118686  0.17616530773177164  0.81011288931232006
 179    -0.57325364932247291  0.45169020439340174  0.68363456085361451
 180    -0.35206349117433816  -0.83611020869632713  -0.42067923302193194
 181    0.82298386589365657  -2.0156625425333502e-16  0.56806474673115548
 182    0.17862079946287884  -0.54810163733322692  0.81711639633033784
 183    -0.45417968995345176  -0.67888578393018439  0.57691845317279067
 184    -0.57817298531578665  0.54962966788631362  -0.60301179692458062
 185    -0.61928922733180869  0.6896805015746017  0.3752621199356222
 186    -0.53579938589075671  -0.47959267812333922  0.6949171757623861
 187    0.30062082970643345  0.88748883748774332  -0.3492716422518003
 188    -0.74568020913921651  -0.050948590570466877  -0.66435326959154584
 189    0.025921568749237012  -0.70969618783121902  0.70403081839605119
 190    -0.13518112259350049  -0.62685801821490195  0.76731681142409924
 191    -0.22337314115894777  -0.73816007783237325  0.63657217917789133
 192    0.55263531271198341  -0.75029798506221768  0.36283211648819702
 193    0.23931566428755871  -5.8613496611153481e-17  0.97094181742605179
 194    0.30548194147197988  -0.18007056769211138  0.93501624268541483
 195    0.59103558035870796  -0.60895143270019414  0.52901332248103761
 196    0.7529061231681532  -0.42406823103731911  0.50328769617464386
 197    -0.47519008554487974  0.86337757941464621  -0.16962764504630756
 198    -0.38553382405111053  -0.88179108635031767  0.27167655501653776
 199    0.13846359175382175  -0.99036238338060745  -0.0031911351136793597
 200    0.22268588274691595  -0.95403036104084848  -0.20059179404326408
 201    -0.72085433479854366  -0.1381141122696157  0.67918592446702331
 202    -0.86627421074753541  0.48275757760545479  0.12850724904941294
 203    -0.41795723651243361  0.81239189074892337  0.4066093509651233
 204    -0.38428292751704946  0.63873306754513393  -0.66659335433479194
 205    -0.97856268699624738  0.094288969437761119  0.18309739992978938
 206    0.72093691696375395  0.48539490487653819  -0.49461272535054523
 207    -0.20758134550174556  -0.047541210108245205  -0.9770618293338087
 208    0.46472317204376845  -1.1382058985065772e-16  0.88545602565320991
 209    0.75460929932586229  0.59898073637774552  0.26793074257969124
 210    0.70102854430838557  0.70899647233707819  0.076700601552038533
 211    -0.82610866568070496  0.30176869340936491  0.47589928363599149
 212    -0.18901785857945433  0.88078960987392452  0.43414503599163395
 213    0.099046574365983853  -0.92665336911457163  0.36263385061929482
 214    -0.68626230842322988  0.6008055640640696  -0.40997160661108578
 215    -0.75079955281610766  0.63115455887345862  -0.19479207967569573
 216    -0.77676319921476189  0.62976711962725085  -0.0056839583077351492
 217    0.15303051232831244  0.95762409877456667  0.24400358141374281
 218    0.7876960641939541  0.6073110838272906  -0.10348022957973999
 219    -0.33257780058407377  -0.57450507455555422  0.74788764254303408
 220    0.7629239511079372  -0.40129619994119492  -0.50686132693135133
 221    -0.08057785861216013  -0.50909071134926165  -0.85693281902339435
 222    0.035251861712091881  -0.35915846320093703  -0.93261058569853938
 223    -0.29524731744048471  -0.43467077879992749  -0.85081745139698572
 224    -0.16023119022868959  -0.31088924919294514  -0.93684248431320849
 225    -0.43095813481245759  -0.56854826360413846  -0.70073387101786844
 226    0.32822848258336501  -0.58587223827349155  -0.74095869226390132
 227    -0.0072227710225696686  -0.54898914249466846  0.83579827291142694
 228    0.19414209594378234  0.81605921622247546  -0.54438607825780605
 229    0.91829899565453854  -0.38790200444427425  0.079113775842010986
 230    -0.91504642406885583  -0.25762996673722843  -0.31034954815139365
 231    0.21351793353047374  0.40735789314212673  0.88795812905546612
 232    0.1127802705213255  0.20519154663164166  0.97220215992973991
 233    -0.12950349559725172  0.16943349511732447  0.97699597509939629
 234    6.1230317691118863e-17  -1.4996607218221374e-32  1
 235    0.91616034379362621  -0.38037699039066275  -0.12634702070601508
 236    -0.79910494479286476  0.50378398966353866  0.32807465456246393
 237    -0.41913133651325979  0.4824665503798698  -0.7691260953297302
 238    -0.20872218512591512  0.60008779863508044  -0.7722238557345702
 239    -0.8746823428781666  -0.268465301135557  0.40355567291683064
 240    0.14402728795242487  -0.65951835235640377  -0.73776126438717538
 241    -0.30448941224973097  -0.72544287230533377  -0.61726723293011487
 242    0.58640230687410189  0.67281628805576943  -0.45105496008755691
 243    -0.088688636808288424  0.7127282080173456  -0.69581091339348133
 244    -0.24254579310626809  -0.61723282156610615  -0.74846187760499516
 245    -0.92995786950676362  -0.098438182992821824  -0.35424325691749303
 246    0.84598750899289044  -0.53101542947578928  -0.048246743793206967
 247    -0.92159643605755504  -0.35280009841166737  -0.16183973432606361
 248    -0.20931125875295947  -0.97526361985146137  -0.071061021337127994
 249    0.84753185627461958  0.52319701930337426  0.08918874139577275
 250    -0.23732047085377828  -0.25552242029883343  0.9372231787778017
 251    -0.043237420814571582  -0.38298086548837079  0.92274383341807387
 252    0.027336608063364624  0.90448566804276609  0.42562705055579031
 253    -0.87650915643400662  0.47428739011750326  -0.082360004024242831
 254    0.9329091125577651  0.34502243790185444  0.10315088487717489
 255    0.91217367315281184  0.40434247803452983  -0.06668096027955199
 256    0.79695570602032595  -0.5516207600625378  -0.24612220482856051
 257    0.033997584338037436  -0.98718571649774811  0.15591191552285466
 258    -0.059872475507303485  -0.99811800496725367  0.013256501680943068
 259    -0.85835543229095457  -0.50886931384661105  -0.065406217455895227
 260    0.98067603914474921  0.19563871357010681  -6.8140897568627581e-16
 261    0.25953391374531121  0.59031322043399959  0.76431174882823927
 262    -0.8448114863967211  -0.18415644018128613  -0.50237432059363762
 263    -0.26212294525653052  0.26266100455056918  0.92860150670700925
 264    0.23164378338772171  -0.68944865614500295  0.68629564194862258
 265    -0.188381755166041  -0.47973590420595008  0.85695144351139363
 266    0.10844319011943018  0.6990388485455854  0.70681310311905177
 267    0.11414325984235804  0.8140503332317387  0.56946762085113767
 268    0.27615568492565012  0.74125376270079513  0.61178500877772291
 269    0.1365079472480174  -0.381187410474773  0.91436411698713849
 270    -0.15295552124463876  -0.10482701639792036  0.9656878587497697
 271    -0.063689593268845421  -0.034714888052991971  0.97712905575186915
 272    0.035044070027804269  0.051308879801101312  0.036539377648055212
 273    -0.18109131320850738  -0.43568224753842821  0.21099536684394413
 274    -0.093657709657498145  0.47163133070769175  0.1676004872051399
 275    0.14436496421274009  0.69342680487675934  0.22663512537089361
 276    0.28447236361136868  0.012319878026888442  0.38380086986430145
 277    0.49088525023042645  -0.3013342110330407  0.42675642375422757
 278    -0.37980163893317026  0.26672664717770894  -0.19464393700450827
 279    0.46581933775447537  0.10290176246816604  -0.042910456821340474
 280    -0.10676843860015209  0.18369756196191742  -0.52583802365505294
 281    -0.16724417224941016  -0.21459716892521233  -0.44275815467681096
 282    -0.68339573635074502  0.12302840097049868  0.094391013831635548
 283    -0.33886227145200448  -0.12331334660094659  0.46680276015512567
 284    -0.45229835053444312  -0.45210568734613588  0.45928898045432398
 285    -0.60534731732686731  0.27058096721543595  0.44903813817891908
 286    -0.43802294885400439  0.60955653498505558  -0.27339412774481431
 287    -0.36414795798332922  -0.60133231408621979  -0.095751136463404593
 288    0.042077782878915795  -0.62667276339793188  -0.012564519641961468
 289    0.47122412943038783  0.65959118297975849  0.097915860225915363
 290    -0.2302756576109051  -0.79327534396967525  0.081934764965728074
 291    -0.1006874526550198  -0.80418007785638024  -0.20223356682979718
 292    0.089468620117630182  0.31429797343215332  0.49388291089558234
 293    0.66671094111685159  0.37866036156167499  0.18632254865379377
 294    0.24582855950469229  -0.21792910268304608  -0.32691451994812781
 295    -0.292027752914717  -0.047814510740905973  -0.70826643425507385
 296    -0.56949933880406167  0.49416682528910172  0.2509686060026648
 297    -0.36893107318900253  0.62307172515857956  0.063204581511026703
 298    -0.068247977344325264  0.55527055580742746  -0.32953010795749099
 299    -0.15470769366593737  0.78235552786826401  -0.064896279045420682
 300    0.18059950390869045  0.72980627054026925  -0.10640511389553046
 301    -0.029061626641241661  -0.55408644032307952  -0.39919009634993341
 302    0.0071073117430681242  -0.20076551000143666  -0.68977069130932978
 303    0.26840517002916031  -0.18802798292864173  -0.71371860010477428
 304    -0.39402365069758638  -0.65961889010239538  0.29794853217590195
 305    -0.12933991586650861  0.064636467188774069  0.76628547062126107
 306    -0.44398033777022095  0.18190809395671359  0.64700979556479354
 307    -0.50432860538341173  0.13459351408873216  -0.56873335721466001
 308    0.12460765587083358  0.64038999458982582  0.49341101832243678
 309    0.50327131399222247  0.23606389192983851  0.5556444707644943
 310    -0.64242986215002951  -0.31138351859329111  0.092863545084992297
 311    0.19125913780788095  -0.51417880015083528  -0.61727480166973703
 312    -0.37698319551536857  0.43808339285366737  -0.5793772697619598
 313    -0.12259794890383172  0.58805762163831343  0.50634587407937359
 314    0.20698581329869006  0.15059943578875434  0.75193773901543537
 315    0.11162659181851874  -0.49253959004815417  0.3921662007148955
 316    0.81743399725929278  0.23050662552005713  -0.011611481825534058
 317    0.39607654619824922  0.34185481424964137  -0.34704958781527301
 318    0.63576633967628515  -0.088580755905080966  -0.33800719188647921
 319    0.2994686367813626  0.37064983923405892  0.26759280558000331
 320    0.15585910926094154  0.48035915287435726  -0.57260283201126794
 321    0.42633527890298328  -0.54047058981490781  0.4125387242505909
 322    0.68563787281728361  -0.25521223382312708  0.012526526227191857
 323    0.25125533549582235  0.1758852421128517  -0.73130464610087587
 324    0.26071154872042751  -0.32419048947631823  0.11714720784208986
 325    -0.12099569608455536  0.5134851321149918  -0.66363402544466898
 326    0.63964850563870779  0.45100952934149002  -0.14163289444223678
 327    -0.12356568853959841  -0.65906757716380771  0.4893423114338914
 328    -0.38335254233958665  0.51381193426041016  0.44836400857390801
 329    -0.57524980865065256  -0.0048382391121696445  -0.23591766255636024
 330    -0.26243367335834944  0.21121826988953629  0.27810144894338817
 331    0.068661988611683461  0.32045657952839013  -0.76284216400308391
 332    -0.59494893580894226  -0.37169312112051589  -0.33970530046365077
 333    -0.10990727206368286  0.77157936482133183  0.2782723685914385
 334    0.27856284648946039  -0.70976057855726005  0.18460443464531134
 335    -0.14025815078680592  -0.42878095294920726  -0.70626515849612181
 336    0.39268232317987489  -0.70635216186470273  -0.068074476909628548
 337    0.7246983010384811  0.17034793038281573  -0.29939962403591697
 338    0.49768631281173531  0.051307373740163184  -0.58905330828867475
 339    0.16348632402169475  0.10665953442778453  -0.40380298604867559
 340    0.29177531435564213  -0.61541965099717166  -0.30490741801894516
 341    0.64838957392548324  -0.047079969236083818  0.518292974658351
 342    0.67249940529472318  0.016405177334575666  0.2628248905715545
 343    0.05457915082118462  0.043224683077928913  -0.80668338556901786
 344    0.50631758424312323  -0.36680110448194025  -0.5285872560943452
 345    0.11665633734258189  -0.15348885511139698  0.81203850129183486
 346    -0.65895304093062623  -0.1009760508254768  -0.49407752206429911
 347    0.2811846950368756  -0.34246615106977291  0.60933428176061755
 348    -0.021020258358421758  -0.76392287159919381  0.25199110187348372
 349    -0.42875849430741569  -0.31250708241196279  -0.62357125953475068
 350    0.037852029842981201  -0.15035800536478444  0.47777353347628337
 351    -0.19900675330889905  0.21860185056098183  -0.79256356797396865
 352    -0.04758806132592263  -0.29461049477585699  -0.14315681577823597
 353    -0.62699676942054627  0.4720360053619837  -0.048233304487984269
 354    -0.21203120967115241  -0.44029597056205166  0.62074242958132042
 355    0.56797876719397478  -0.56155229045207722  0.088897047942855981
 356    0.38719735648952802  -0.089401933007366763  0.69429731153104557
 357    0.48574540955707052  0.60494418940257921  -0.27113574838745136
 358    -0.32818015317323601  -0.57549868616860911  -0.4641483150377973
 359    -0.78947739653737836  0.21323293703835822  -0.14601560258069538
 360    -0.12579020577901656  0.34543849289501449  0.73423032984512637
 361    0.26122219639117139  0.41843596649647441  -0.072245529530842789
 362    -0.37584122405561243  -0.061439174605915955  -0.39284686061031404
 363    0.59913221515086312  0.3482980285061465  -0.47133632026129141
 364    -0.69828522847649122  -0.0081752786825717086  0.36470273103655082
 365    0.64183775696407508  -0.41625622327770256  -0.22264080016842416
 366    0.44703898050626206  0.54171571708712041  -0.48823447775546941
 367    0.13134632967220142  -0.58205480578204138  0.61765200581129065
 368    -0.57789058988508379  -0.21061085685027553  0.56656050207845088
 369    -0.13619989285421211  -0.018392633363384543  -0.32379875947680975
 370    0.36522820629214447  0.36359895929241842  -0.64415132377272311
 371    -0.13099512866277541  -0.22407556551852362  0.79017079149176184
 372    0.0077673206900631293  0.70896103833935897  -0.52556974819856384
 373    -0.67121884832144052  0.34780754870292763  -0.33287878879369454
 374    0.82721596245445217  -0.023486713377941209  -0.015761899288278307
 375    0.26043877555818301  0.67043674917676188  -0.36846045150632856
 376    0.32535382176102035  0.48064156899165372  0.61638125049892911
 377    0.73263411816629342  -0.28599799981246632  0.28993139938020307
 378    0.16750413261042996  -0.7285148241523921  0.42886139161148651
 379    -0.3444854959459776  -0.1251317120734505  0.77616394159299817
 380    -0.098870612570899435  0.34542860324671582  -0.10948169188937928
 381    -0.81700220000816193  -0.13656499617770909  -0.20749599785183148
 382    0.071399472237119566  -0.86209875570006278  0.025186813417895665
 383    0.043040410597761453  -0.39223894671318998  0.74672879835696759
 384    -0.28907150483637872  -0.25653613485497762  -0.18335903521098748
 385    -0.32294800631687298  -0.002145270470992831  -0.083769588153908517
 386    -0.77935019324813548  0.062637644287041647  -0.36751105399138229
 387    -0.27322925260962233  -0.17867850767881974  0.13787542433069422
# Generated by E:\panyingyun\smartmm\vendor\tetgen\build\tetgen.exe -pq1 .4a0.01 sphere.stl 
